<svg xmlns="http://www.w3.org/2000/svg" width="1120" height="720" viewBox="0 0 1120 720">
<rect width="100%" height="100%" fill="#f8fafc"/>
<text x="40" y="44" font-family="Arial, sans-serif" font-size="24" fill="#111827" font-weight="700" text-anchor="start">Fred Hartman Table 15: 12 published stays, equilibrium shapes</text>
<text x="40" y="70" font-family="Arial, sans-serif" font-size="13" fill="#475569" font-weight="400" text-anchor="start">Published values: mass, tension, length, omega, frequency. Geometry here is an assumed 30 deg planar chord because endpoints are not in Table 15.</text>
<rect x="40" y="96" width="1035" height="510" fill="#ffffff" stroke="#cbd5e1"/>
<polyline points="560.00,531.55 560.00,528.41 560.00,525.26 560.00,522.12 560.00,518.97 560.00,515.83 560.00,512.68 560.00,509.54 560.00,506.39 560.00,503.25 560.00,500.10 560.00,496.96 560.00,493.82 560.00,490.67 560.00,487.53 560.00,484.38 560.00,481.24 560.00,478.09 560.00,474.95 560.00,471.80 560.00,468.66 560.00,465.51 560.00,462.37 560.00,459.22 560.00,456.08 560.00,452.93 560.00,449.79 560.00,446.65 560.00,443.50 560.00,440.36 560.00,437.21 560.00,434.07 560.00,430.92 560.00,427.78 560.00,424.63 560.00,421.49 560.00,418.34 560.00,415.20 560.00,412.05 560.00,408.91 560.00,405.76" fill="none" stroke="#2563eb" stroke-width="2.2" stroke-linecap="round" stroke-linejoin="round" opacity="0.82"/>
<text x="566.0" y="464.65795514489344" font-family="Arial, sans-serif" font-size="12" fill="#2563eb" font-weight="700" text-anchor="start">13S</text>
<polyline points="560.00,531.55 560.00,527.99 560.00,524.44 560.00,520.88 560.00,517.32 560.00,513.76 560.00,510.20 560.00,506.65 560.00,503.09 560.00,499.53 560.00,495.97 560.00,492.41 560.00,488.86 560.00,485.30 560.00,481.74 560.00,478.18 560.00,474.62 560.00,471.07 560.00,467.51 560.00,463.95 560.00,460.39 560.00,456.84 560.00,453.28 560.00,449.72 560.00,446.16 560.00,442.60 560.00,439.05 560.00,435.49 560.00,431.93 560.00,428.37 560.00,424.81 560.00,421.26 560.00,417.70 560.00,414.14 560.00,410.58 560.00,407.02 560.00,403.47 560.00,399.91 560.00,396.35 560.00,392.79 560.00,389.23" fill="none" stroke="#0891b2" stroke-width="2.2" stroke-linecap="round" stroke-linejoin="round" opacity="0.82"/>
<polyline points="560.00,531.55 560.00,527.51 560.00,523.46 560.00,519.42 560.00,515.38 560.00,511.33 560.00,507.29 560.00,503.24 560.00,499.20 560.00,495.15 560.00,491.11 560.00,487.07 560.00,483.02 560.00,478.98 560.00,474.93 560.00,470.89 560.00,466.84 560.00,462.80 560.00,458.76 560.00,454.71 560.00,450.67 560.00,446.62 560.00,442.58 560.00,438.54 560.00,434.49 560.00,430.45 560.00,426.40 560.00,422.36 560.00,418.31 560.00,414.27 560.00,410.23 560.00,406.18 560.00,402.14 560.00,398.09 560.00,394.05 560.00,390.00 560.00,385.96 560.00,381.92 560.00,377.87 560.00,373.83 560.00,369.78" fill="none" stroke="#059669" stroke-width="2.2" stroke-linecap="round" stroke-linejoin="round" opacity="0.82"/>
<polyline points="560.00,531.55 560.00,526.94 560.00,522.32 560.00,517.71 560.00,513.10 560.00,508.48 560.00,503.87 560.00,499.25 560.00,494.64 560.00,490.03 560.00,485.41 560.00,480.80 560.00,476.18 560.00,471.57 560.00,466.96 560.00,462.34 560.00,457.73 560.00,453.12 560.00,448.50 560.00,443.89 560.00,439.27 560.00,434.66 560.00,430.05 560.00,425.43 560.00,420.82 560.00,416.20 560.00,411.59 560.00,406.98 560.00,402.36 560.00,397.75 560.00,393.13 560.00,388.52 560.00,383.91 560.00,379.29 560.00,374.68 560.00,370.06 560.00,365.45 560.00,360.84 560.00,356.22 560.00,351.61 560.00,346.99" fill="none" stroke="#65a30d" stroke-width="2.2" stroke-linecap="round" stroke-linejoin="round" opacity="0.82"/>
<text x="566.0" y="435.2732019439264" font-family="Arial, sans-serif" font-size="12" fill="#65a30d" font-weight="700" text-anchor="start">16S</text>
<polyline points="560.00,531.55 560.00,526.30 560.00,521.05 560.00,515.80 560.00,510.55 560.00,505.30 560.00,500.05 560.00,494.80 560.00,489.55 560.00,484.30 560.00,479.05 560.00,473.80 560.00,468.55 560.00,463.30 560.00,458.05 560.00,452.80 560.00,447.55 560.00,442.30 560.00,437.05 560.00,431.80 560.00,426.55 560.00,421.30 560.00,416.05 560.00,410.80 560.00,405.55 560.00,400.30 560.00,395.05 560.00,389.80 560.00,384.55 560.00,379.29 560.00,374.04 560.00,368.79 560.00,363.54 560.00,358.29 560.00,353.04 560.00,347.79 560.00,342.54 560.00,337.29 560.00,332.04 560.00,326.79 560.00,321.54" fill="none" stroke="#ca8a04" stroke-width="2.2" stroke-linecap="round" stroke-linejoin="round" opacity="0.82"/>
<polyline points="560.00,531.55 560.00,525.62 560.00,519.69 560.00,513.76 560.00,507.82 560.00,501.89 560.00,495.96 560.00,490.03 560.00,484.10 560.00,478.16 560.00,472.23 560.00,466.30 560.00,460.37 560.00,454.44 560.00,448.51 560.00,442.57 560.00,436.64 560.00,430.71 560.00,424.78 560.00,418.85 560.00,412.91 560.00,406.98 560.00,401.05 560.00,395.12 560.00,389.19 560.00,383.25 560.00,377.32 560.00,371.39 560.00,365.46 560.00,359.53 560.00,353.59 560.00,347.66 560.00,341.73 560.00,335.80 560.00,329.87 560.00,323.93 560.00,318.00 560.00,312.07 560.00,306.14 560.00,300.21 560.00,294.27" fill="none" stroke="#d97706" stroke-width="2.2" stroke-linecap="round" stroke-linejoin="round" opacity="0.82"/>
<polyline points="560.00,531.55 560.00,524.91 560.00,518.26 560.00,511.62 560.00,504.97 560.00,498.33 560.00,491.68 560.00,485.04 560.00,478.39 560.00,471.75 560.00,465.10 560.00,458.46 560.00,451.81 560.00,445.17 560.00,438.52 560.00,431.88 560.00,425.23 560.00,418.59 560.00,411.94 560.00,405.30 560.00,398.65 560.00,392.01 560.00,385.36 560.00,378.71 560.00,372.07 560.00,365.42 560.00,358.78 560.00,352.13 560.00,345.49 560.00,338.84 560.00,332.20 560.00,325.55 560.00,318.91 560.00,312.26 560.00,305.62 560.00,298.97 560.00,292.33 560.00,285.68 560.00,279.04 560.00,272.39 560.00,265.75" fill="none" stroke="#dc2626" stroke-width="2.2" stroke-linecap="round" stroke-linejoin="round" opacity="0.82"/>
<text x="566.0" y="394.65030315789124" font-family="Arial, sans-serif" font-size="12" fill="#dc2626" font-weight="700" text-anchor="start">19S</text>
<polyline points="560.00,531.55 560.00,524.17 560.00,516.79 560.00,509.41 560.00,502.03 560.00,494.65 560.00,487.27 560.00,479.89 560.00,472.51 560.00,465.13 560.00,457.75 560.00,450.37 560.00,442.98 560.00,435.60 560.00,428.22 560.00,420.84 560.00,413.46 560.00,406.08 560.00,398.70 560.00,391.32 560.00,383.94 560.00,376.56 560.00,369.18 560.00,361.80 560.00,354.42 560.00,347.04 560.00,339.66 560.00,332.28 560.00,324.89 560.00,317.51 560.00,310.13 560.00,302.75 560.00,295.37 560.00,287.99 560.00,280.61 560.00,273.23 560.00,265.85 560.00,258.47 560.00,251.09 560.00,243.71 560.00,236.33" fill="none" stroke="#be123c" stroke-width="2.2" stroke-linecap="round" stroke-linejoin="round" opacity="0.82"/>
<polyline points="560.00,531.55 560.00,523.41 560.00,515.27 560.00,507.13 560.00,498.99 560.00,490.85 560.00,482.71 560.00,474.57 560.00,466.43 560.00,458.29 560.00,450.15 560.00,442.01 560.00,433.87 560.00,425.73 560.00,417.59 560.00,409.45 560.00,401.31 560.00,393.17 560.00,385.03 560.00,376.89 560.00,368.75 560.00,360.61 560.00,352.47 560.00,344.33 560.00,336.19 560.00,328.05 560.00,319.91 560.00,311.77 560.00,303.63 560.00,295.49 560.00,287.35 560.00,279.21 560.00,271.07 560.00,262.93 560.00,254.79 560.00,246.65 560.00,238.51 560.00,230.37 560.00,222.23 560.00,214.09 560.00,205.95" fill="none" stroke="#9333ea" stroke-width="2.2" stroke-linecap="round" stroke-linejoin="round" opacity="0.82"/>
<polyline points="560.00,531.55 560.00,522.65 560.00,513.76 560.00,504.86 560.00,495.96 560.00,487.07 560.00,478.17 560.00,469.27 560.00,460.38 560.00,451.48 560.00,442.58 560.00,433.69 560.00,424.79 560.00,415.89 560.00,406.99 560.00,398.10 560.00,389.20 560.00,380.30 560.00,371.41 560.00,362.51 560.00,353.61 560.00,344.72 560.00,335.82 560.00,326.92 560.00,318.02 560.00,309.13 560.00,300.23 560.00,291.33 560.00,282.44 560.00,273.54 560.00,264.64 560.00,255.75 560.00,246.85 560.00,237.95 560.00,229.05 560.00,220.16 560.00,211.26 560.00,202.36 560.00,193.47 560.00,184.57 560.00,175.67" fill="none" stroke="#7c3aed" stroke-width="2.2" stroke-linecap="round" stroke-linejoin="round" opacity="0.82"/>
<text x="566.0" y="349.61300308902935" font-family="Arial, sans-serif" font-size="12" fill="#7c3aed" font-weight="700" text-anchor="start">22S</text>
<polyline points="560.00,531.55 560.00,521.88 560.00,512.21 560.00,502.54 560.00,492.87 560.00,483.20 560.00,473.53 560.00,463.85 560.00,454.18 560.00,444.51 560.00,434.84 560.00,425.17 560.00,415.50 560.00,405.83 560.00,396.16 560.00,386.49 560.00,376.81 560.00,367.14 560.00,357.47 560.00,347.80 560.00,338.13 560.00,328.46 560.00,318.79 560.00,309.12 560.00,299.45 560.00,289.77 560.00,280.10 560.00,270.43 560.00,260.76 560.00,251.09 560.00,241.42 560.00,231.75 560.00,222.08 560.00,212.40 560.00,202.73 560.00,193.06 560.00,183.39 560.00,173.72 560.00,164.05 560.00,154.38 560.00,144.71" fill="none" stroke="#475569" stroke-width="2.2" stroke-linecap="round" stroke-linejoin="round" opacity="0.82"/>
<polyline points="560.00,531.55 560.00,521.10 560.00,510.65 560.00,500.19 560.00,489.74 560.00,479.29 560.00,468.84 560.00,458.38 560.00,447.93 560.00,437.48 560.00,427.03 560.00,416.57 560.00,406.12 560.00,395.67 560.00,385.22 560.00,374.76 560.00,364.31 560.00,353.86 560.00,343.41 560.00,332.95 560.00,322.50 560.00,312.05 560.00,301.60 560.00,291.14 560.00,280.69 560.00,270.24 560.00,259.79 560.00,249.33 560.00,238.88 560.00,228.43 560.00,217.98 560.00,207.52 560.00,197.07 560.00,186.62 560.00,176.16 560.00,165.71 560.00,155.26 560.00,144.81 560.00,134.35 560.00,123.90 560.00,113.45" fill="none" stroke="#111827" stroke-width="2.2" stroke-linecap="round" stroke-linejoin="round" opacity="0.82"/>
<text x="566.0" y="318.5020385414505" font-family="Arial, sans-serif" font-size="12" fill="#111827" font-weight="700" text-anchor="start">24S</text>
<text x="810" y="118" font-family="Arial, sans-serif" font-size="12" fill="#2563eb" font-weight="400" text-anchor="start">13S: L=59.5 m, f=1.893 Hz</text>
<text x="810" y="140" font-family="Arial, sans-serif" font-size="12" fill="#0891b2" font-weight="400" text-anchor="start">14S: L=67.3 m, f=1.355 Hz</text>
<text x="810" y="162" font-family="Arial, sans-serif" font-size="12" fill="#059669" font-weight="400" text-anchor="start">15S: L=76.5 m, f=1.300 Hz</text>
<text x="810" y="184" font-family="Arial, sans-serif" font-size="12" fill="#65a30d" font-weight="400" text-anchor="start">16S: L=87.3 m, f=1.215 Hz</text>
<text x="810" y="206" font-family="Arial, sans-serif" font-size="12" fill="#ca8a04" font-weight="400" text-anchor="start">17S: L=99.4 m, f=1.071 Hz</text>
<text x="810" y="228" font-family="Arial, sans-serif" font-size="12" fill="#d97706" font-weight="400" text-anchor="start">18S: L=112.3 m, f=1.012 Hz</text>
<text x="810" y="250" font-family="Arial, sans-serif" font-size="12" fill="#dc2626" font-weight="400" text-anchor="start">19S: L=125.8 m, f=0.881 Hz</text>
<text x="810" y="272" font-family="Arial, sans-serif" font-size="12" fill="#be123c" font-weight="400" text-anchor="start">20S: L=139.7 m, f=0.782 Hz</text>
<text x="810" y="294" font-family="Arial, sans-serif" font-size="12" fill="#9333ea" font-weight="400" text-anchor="start">21S: L=154.1 m, f=0.759 Hz</text>
<text x="810" y="316" font-family="Arial, sans-serif" font-size="12" fill="#7c3aed" font-weight="400" text-anchor="start">22S: L=168.4 m, f=0.668 Hz</text>
<text x="810" y="338" font-family="Arial, sans-serif" font-size="12" fill="#475569" font-weight="400" text-anchor="start">23S: L=183.1 m, f=0.648 Hz</text>
<text x="810" y="360" font-family="Arial, sans-serif" font-size="12" fill="#111827" font-weight="400" text-anchor="start">24S: L=197.8 m, f=0.617 Hz</text>
<text x="55" y="666" font-family="Arial, sans-serif" font-size="13" fill="#475569" font-weight="400" text-anchor="start">This figure is a published-properties consistency model, not a calibrated bridge geometry.</text>
</svg>
