<svg xmlns="http://www.w3.org/2000/svg" width="980" height="560" viewBox="0 0 980 560">
<rect width="100%" height="100%" fill="#f8fafc"/>
<text x="35" y="42" font-family="Arial, sans-serif" font-size="23" fill="#111827" font-weight="700" text-anchor="start">Sutong C_334m: actual-scale motion trail</text>
<text x="35" y="68" font-family="Arial, sans-serif" font-size="13" fill="#475569" font-weight="400" text-anchor="start">Gray = all output frames, black dashed = static t=0, red/green/blue = max-sag frame. Equal x-z scale.</text>
<rect x="35" y="88" width="910" height="390" fill="#ffffff" stroke="#cbd5e1"/>
<polyline points="241.78,424.91 258.55,414.09 275.31,403.24 292.04,392.37 308.77,381.47 325.48,370.55 342.17,359.61 358.85,348.64 375.51,337.65 392.15,326.64 408.78,315.60 425.40,304.54 442.00,293.46 458.58,282.35 475.15,271.22 491.71,260.07 508.25,248.90 524.77,237.70 541.28,226.48 557.77,215.24 574.25,203.97 590.71,192.69 607.16,181.38 623.59,170.04 640.01,158.69 656.41,147.31 672.79,135.91 689.16,124.49 705.51,113.05 721.85,101.58 738.18,90.09" fill="none" stroke="#94a3b8" stroke-width="1.2" stroke-linecap="round" stroke-linejoin="round" opacity="0.22"/>
<polyline points="241.78,424.91 258.55,414.08 275.31,403.24 292.04,392.36 308.77,381.47 325.48,370.55 342.17,359.60 358.85,348.64 375.51,337.65 392.16,326.63 408.79,315.60 425.41,304.54 442.01,293.46 458.60,282.35 475.17,271.22 491.73,260.07 508.27,248.90 524.79,237.70 541.30,226.48 557.80,215.24 574.28,203.97 590.74,192.69 607.19,181.38 623.62,170.04 640.04,158.69 656.44,147.31 672.83,135.91 689.20,124.49 705.55,113.04 721.89,101.58 738.22,90.09" fill="none" stroke="#94a3b8" stroke-width="1.2" stroke-linecap="round" stroke-linejoin="round" opacity="0.22"/>
<polyline points="241.78,424.91 258.55,414.08 275.30,403.22 292.03,392.35 308.75,381.44 325.46,370.52 342.15,359.57 358.82,348.60 375.48,337.61 392.13,326.59 408.76,315.55 425.37,304.49 441.97,293.40 458.56,282.30 475.13,271.17 491.68,260.02 508.22,248.84 524.75,237.65 541.26,226.43 557.75,215.19 574.23,203.92 590.70,192.64 607.15,181.33 623.58,170.00 640.00,158.65 656.41,147.28 672.80,135.89 689.17,124.47 705.53,113.03 721.87,101.57 738.20,90.09" fill="none" stroke="#94a3b8" stroke-width="1.2" stroke-linecap="round" stroke-linejoin="round" opacity="0.22"/>
<polyline points="241.78,424.91 258.56,414.10 275.32,403.26 292.06,392.39 308.79,381.51 325.50,370.59 342.20,359.66 358.88,348.70 375.54,337.71 392.19,326.71 408.82,315.67 425.44,304.62 442.04,293.54 458.63,282.43 475.20,271.31 491.75,260.15 508.29,248.98 524.81,237.78 541.32,226.56 557.81,215.31 574.28,204.04 590.74,192.75 607.18,181.43 623.61,170.09 640.02,158.73 656.41,147.35 672.79,135.94 689.16,124.51 705.50,113.06 721.84,101.59 738.15,90.09" fill="none" stroke="#94a3b8" stroke-width="1.2" stroke-linecap="round" stroke-linejoin="round" opacity="0.22"/>
<polyline points="241.78,424.91 258.56,414.10 275.32,403.26 292.06,392.40 308.79,381.52 325.51,370.61 342.20,359.67 358.88,348.71 375.55,337.73 392.20,326.72 408.83,315.69 425.45,304.64 442.05,293.56 458.63,282.45 475.20,271.33 491.75,260.17 508.29,249.00 524.81,237.80 541.32,226.58 557.81,215.33 574.28,204.06 590.74,192.77 607.18,181.45 623.60,170.11 640.01,158.75 656.40,147.36 672.78,135.95 689.14,124.52 705.49,113.07 721.82,101.59 738.13,90.09" fill="none" stroke="#94a3b8" stroke-width="1.2" stroke-linecap="round" stroke-linejoin="round" opacity="0.22"/>
<polyline points="241.78,424.91 258.55,414.09 275.31,403.24 292.04,392.37 308.77,381.47 325.47,370.55 342.17,359.61 358.84,348.64 375.50,337.65 392.15,326.64 408.78,315.60 425.40,304.54 442.00,293.46 458.58,282.35 475.15,271.22 491.70,260.07 508.24,248.90 524.77,237.70 541.28,226.48 557.77,215.24 574.25,203.97 590.71,192.69 607.16,181.38 623.59,170.04 640.00,158.69 656.40,147.31 672.79,135.91 689.16,124.49 705.51,113.05 721.85,101.58 738.17,90.09" fill="none" stroke="#94a3b8" stroke-width="1.2" stroke-linecap="round" stroke-linejoin="round" opacity="0.22"/>
<polyline points="241.78,424.91 258.55,414.09 275.31,403.24 292.05,392.36 308.77,381.47 325.48,370.55 342.17,359.60 358.85,348.64 375.51,337.65 392.16,326.64 408.80,315.60 425.41,304.54 442.01,293.46 458.60,282.35 475.17,271.22 491.73,260.07 508.27,248.90 524.79,237.70 541.30,226.48 557.80,215.24 574.28,203.97 590.74,192.69 607.19,181.38 623.62,170.04 640.04,158.69 656.44,147.31 672.82,135.91 689.20,124.49 705.55,113.04 721.89,101.58 738.22,90.09" fill="none" stroke="#94a3b8" stroke-width="1.2" stroke-linecap="round" stroke-linejoin="round" opacity="0.22"/>
<polyline points="241.78,424.91 258.55,414.08 275.30,403.23 292.04,392.35 308.76,381.45 325.46,370.52 342.15,359.58 358.83,348.61 375.49,337.61 392.13,326.60 408.76,315.56 425.38,304.49 441.98,293.41 458.56,282.30 475.13,271.17 491.69,260.02 508.23,248.85 524.75,237.65 541.26,226.43 557.76,215.19 574.24,203.93 590.70,192.64 607.15,181.33 623.59,170.01 640.01,158.65 656.41,147.28 672.80,135.89 689.18,124.47 705.53,113.03 721.88,101.57 738.21,90.09" fill="none" stroke="#94a3b8" stroke-width="1.2" stroke-linecap="round" stroke-linejoin="round" opacity="0.22"/>
<polyline points="241.78,424.91 258.56,414.09 275.31,403.25 292.06,392.39 308.78,381.50 325.49,370.59 342.19,359.65 358.87,348.69 375.53,337.70 392.18,326.69 408.81,315.66 425.43,304.60 442.03,293.52 458.62,282.41 475.18,271.29 491.74,260.13 508.28,248.96 524.80,237.76 541.31,226.54 557.80,215.29 574.27,204.03 590.73,192.73 607.17,181.42 623.60,170.08 640.01,158.72 656.41,147.34 672.79,135.94 689.15,124.51 705.50,113.06 721.84,101.58 738.16,90.09" fill="none" stroke="#94a3b8" stroke-width="1.2" stroke-linecap="round" stroke-linejoin="round" opacity="0.22"/>
<polyline points="241.78,424.91 258.56,414.10 275.32,403.26 292.06,392.40 308.79,381.52 325.51,370.61 342.20,359.68 358.89,348.72 375.55,337.74 392.20,326.73 408.84,315.70 425.45,304.65 442.06,293.57 458.64,282.47 475.21,271.34 491.76,260.19 508.30,249.01 524.82,237.81 541.33,226.59 557.82,215.34 574.29,204.07 590.74,192.78 607.19,181.46 623.61,170.12 640.02,158.76 656.41,147.37 672.79,135.96 689.15,124.53 705.49,113.07 721.82,101.59 738.13,90.09" fill="none" stroke="#94a3b8" stroke-width="1.2" stroke-linecap="round" stroke-linejoin="round" opacity="0.22"/>
<polyline points="241.78,424.91 258.55,414.09 275.31,403.24 292.04,392.37 308.77,381.47 325.47,370.55 342.17,359.61 358.84,348.64 375.50,337.65 392.15,326.64 408.78,315.60 425.40,304.54 442.00,293.46 458.58,282.36 475.15,271.23 491.71,260.08 508.24,248.90 524.77,237.70 541.28,226.49 557.77,215.24 574.25,203.98 590.71,192.69 607.15,181.38 623.58,170.05 640.00,158.69 656.40,147.31 672.78,135.91 689.15,124.49 705.51,113.05 721.84,101.58 738.17,90.09" fill="none" stroke="#94a3b8" stroke-width="1.2" stroke-linecap="round" stroke-linejoin="round" opacity="0.22"/>
<polyline points="241.78,424.91 258.55,414.09 275.31,403.24 292.05,392.36 308.77,381.47 325.48,370.55 342.17,359.60 358.85,348.64 375.51,337.65 392.16,326.64 408.79,315.60 425.41,304.54 442.01,293.46 458.60,282.35 475.17,271.22 491.72,260.07 508.26,248.90 524.79,237.70 541.30,226.48 557.79,215.24 574.27,203.97 590.73,192.68 607.18,181.37 623.61,170.04 640.03,158.68 656.43,147.31 672.82,135.91 689.19,124.49 705.55,113.04 721.89,101.58 738.21,90.09" fill="none" stroke="#94a3b8" stroke-width="1.2" stroke-linecap="round" stroke-linejoin="round" opacity="0.22"/>
<polyline points="241.78,424.91 258.55,414.08 275.30,403.23 292.04,392.35 308.76,381.45 325.47,370.53 342.16,359.58 358.83,348.61 375.49,337.62 392.14,326.60 408.77,315.56 425.38,304.50 441.98,293.42 458.57,282.31 475.14,271.18 491.69,260.03 508.23,248.85 524.76,237.66 541.27,226.44 557.76,215.20 574.24,203.93 590.71,192.65 607.16,181.34 623.59,170.01 640.01,158.66 656.42,147.28 672.80,135.89 689.18,124.47 705.54,113.03 721.88,101.57 738.21,90.09" fill="none" stroke="#94a3b8" stroke-width="1.2" stroke-linecap="round" stroke-linejoin="round" opacity="0.22"/>
<polyline points="241.78,424.91 258.55,414.09 275.31,403.25 292.05,392.38 308.78,381.49 325.49,370.57 342.18,359.63 358.86,348.67 375.52,337.68 392.17,326.67 408.80,315.64 425.42,304.58 442.02,293.50 458.60,282.39 475.17,271.27 491.73,260.11 508.26,248.94 524.79,237.74 541.29,226.52 557.79,215.28 574.26,204.01 590.72,192.72 607.17,181.41 623.60,170.07 640.01,158.71 656.41,147.33 672.79,135.93 689.16,124.50 705.51,113.05 721.84,101.58 738.16,90.09" fill="none" stroke="#94a3b8" stroke-width="1.2" stroke-linecap="round" stroke-linejoin="round" opacity="0.22"/>
<polyline points="241.78,424.91 258.56,414.10 275.32,403.27 292.07,392.41 308.80,381.52 325.51,370.62 342.21,359.68 358.89,348.73 375.56,337.74 392.21,326.74 408.84,315.71 425.46,304.65 442.06,293.57 458.64,282.47 475.21,271.35 491.77,260.19 508.30,249.02 524.83,237.82 541.33,226.60 557.82,215.35 574.29,204.08 590.75,192.79 607.19,181.47 623.61,170.13 640.02,158.76 656.41,147.37 672.79,135.96 689.15,124.53 705.49,113.07 721.82,101.59 738.13,90.09" fill="none" stroke="#94a3b8" stroke-width="1.2" stroke-linecap="round" stroke-linejoin="round" opacity="0.22"/>
<polyline points="241.78,424.91 258.55,414.09 275.31,403.24 292.05,392.37 308.77,381.48 325.48,370.56 342.17,359.62 358.85,348.65 375.51,337.66 392.16,326.65 408.79,315.61 425.40,304.55 442.00,293.47 458.59,282.36 475.16,271.23 491.71,260.08 508.25,248.91 524.77,237.71 541.28,226.49 557.77,215.25 574.25,203.98 590.71,192.69 607.15,181.38 623.58,170.05 640.00,158.69 656.40,147.32 672.78,135.92 689.15,124.49 705.50,113.05 721.84,101.58 738.16,90.09" fill="none" stroke="#94a3b8" stroke-width="1.2" stroke-linecap="round" stroke-linejoin="round" opacity="0.22"/>
<polyline points="241.78,424.91 258.55,414.08 275.31,403.24 292.04,392.36 308.77,381.47 325.48,370.55 342.17,359.60 358.85,348.64 375.51,337.64 392.16,326.63 408.79,315.59 425.41,304.53 442.01,293.45 458.59,282.35 475.16,271.22 491.72,260.06 508.26,248.89 524.79,237.69 541.29,226.47 557.79,215.23 574.27,203.96 590.73,192.68 607.18,181.37 623.61,170.03 640.03,158.68 656.43,147.30 672.82,135.90 689.19,124.48 705.54,113.04 721.89,101.58 738.21,90.09" fill="none" stroke="#94a3b8" stroke-width="1.2" stroke-linecap="round" stroke-linejoin="round" opacity="0.22"/>
<polyline points="241.78,424.91 258.55,414.08 275.30,403.23 292.04,392.35 308.76,381.45 325.47,370.53 342.16,359.58 358.83,348.61 375.49,337.62 392.14,326.61 408.77,315.57 425.39,304.51 441.99,293.43 458.58,282.32 475.15,271.19 491.70,260.04 508.24,248.86 524.77,237.67 541.28,226.45 557.77,215.21 574.25,203.94 590.72,192.66 607.16,181.35 623.60,170.02 640.02,158.67 656.42,147.29 672.81,135.89 689.18,124.48 705.54,113.04 721.88,101.57 738.21,90.09" fill="none" stroke="#94a3b8" stroke-width="1.2" stroke-linecap="round" stroke-linejoin="round" opacity="0.22"/>
<polyline points="241.78,424.91 258.55,414.09 275.31,403.24 292.05,392.37 308.77,381.48 325.48,370.56 342.17,359.62 358.85,348.66 375.51,337.67 392.16,326.66 408.79,315.62 425.41,304.56 442.01,293.48 458.59,282.38 475.16,271.25 491.72,260.10 508.26,248.92 524.78,237.73 541.29,226.50 557.78,215.26 574.26,204.00 590.72,192.71 607.16,181.40 623.59,170.06 640.01,158.70 656.40,147.32 672.79,135.92 689.16,124.50 705.51,113.05 721.84,101.58 738.16,90.09" fill="none" stroke="#94a3b8" stroke-width="1.2" stroke-linecap="round" stroke-linejoin="round" opacity="0.22"/>
<polyline points="241.78,424.91 258.56,414.10 275.32,403.27 292.07,392.41 308.80,381.53 325.51,370.62 342.21,359.69 358.89,348.73 375.56,337.75 392.21,326.74 408.84,315.71 425.46,304.66 442.06,293.58 458.65,282.48 475.22,271.35 491.77,260.20 508.31,249.02 524.83,237.82 541.33,226.60 557.82,215.35 574.29,204.08 590.75,192.79 607.19,181.47 623.61,170.13 640.02,158.76 656.41,147.37 672.79,135.96 689.15,124.53 705.49,113.07 721.82,101.59 738.13,90.09" fill="none" stroke="#94a3b8" stroke-width="1.2" stroke-linecap="round" stroke-linejoin="round" opacity="0.22"/>
<polyline points="241.78,424.91 258.55,414.09 275.31,403.25 292.05,392.38 308.77,381.48 325.48,370.57 342.18,359.63 358.85,348.66 375.51,337.67 392.16,326.66 408.79,315.62 425.41,304.56 442.01,293.48 458.59,282.38 475.16,271.25 491.71,260.10 508.25,248.92 524.77,237.72 541.28,226.50 557.77,215.26 574.25,203.99 590.71,192.70 607.16,181.39 623.59,170.06 640.00,158.70 656.40,147.32 672.78,135.92 689.15,124.50 705.50,113.05 721.84,101.58 738.16,90.09" fill="none" stroke="#94a3b8" stroke-width="1.2" stroke-linecap="round" stroke-linejoin="round" opacity="0.22"/>
<polyline points="241.78,424.91 258.55,414.09 275.31,403.24 292.04,392.37 308.77,381.47 325.48,370.55 342.17,359.61 358.85,348.64 375.51,337.65 392.15,326.64 408.78,315.60 425.40,304.54 442.00,293.46 458.58,282.35 475.15,271.22 491.71,260.07 508.25,248.90 524.77,237.70 541.28,226.48 557.77,215.24 574.25,203.97 590.71,192.69 607.16,181.38 623.59,170.04 640.01,158.69 656.41,147.31 672.79,135.91 689.16,124.49 705.51,113.05 721.85,101.58 738.18,90.09" fill="none" stroke="#111827" stroke-width="2.2" stroke-linecap="round" stroke-linejoin="round" opacity="0.85" stroke-dasharray="7 5"/>
<polyline points="241.78,424.91 258.56,414.10 275.32,403.27 292.07,392.41 308.80,381.53 325.51,370.62 342.21,359.69 358.89,348.73 375.56,337.75 392.21,326.74 408.84,315.71 425.46,304.66 442.06,293.58 458.65,282.48 475.22,271.35 491.77,260.20 508.31,249.02 524.83,237.82 541.33,226.60 557.82,215.35 574.29,204.08 590.75,192.79 607.19,181.47 623.61,170.13 640.02,158.76 656.41,147.37 672.79,135.96 689.15,124.53 705.49,113.07 721.82,101.59 738.13,90.09" fill="none" stroke="#2563eb" stroke-width="3.2" stroke-linecap="round" stroke-linejoin="round" opacity="1.0"/>
<text x="45" y="520" font-family="Arial, sans-serif" font-size="13" fill="#334155" font-weight="400" text-anchor="start">max-sag frame #00019; sag range 0.122 m</text>
</svg>
