<svg xmlns="http://www.w3.org/2000/svg" width="980" height="560" viewBox="0 0 980 560">
<rect width="100%" height="100%" fill="#f8fafc"/>
<text x="35" y="42" font-family="Arial, sans-serif" font-size="23" fill="#111827" font-weight="700" text-anchor="start">Sutong C_454m: displacement amplified x10</text>
<text x="35" y="68" font-family="Arial, sans-serif" font-size="13" fill="#475569" font-weight="400" text-anchor="start">Geometry base is unchanged; only frame-to-static displacement is multiplied by 10 for visibility.</text>
<rect x="35" y="88" width="910" height="390" fill="#ffffff" stroke="#cbd5e1"/>
<polyline points="161.22,424.91 183.44,414.39 205.64,403.83 227.82,393.22 249.98,382.57 272.12,371.87 294.23,361.13 316.33,350.34 338.40,339.50 360.45,328.62 382.47,317.70 404.48,306.73 426.46,295.72 448.42,284.66 470.36,273.56 492.28,262.42 514.17,251.23 536.04,240.00 557.90,228.73 579.72,217.41 601.53,206.05 623.31,194.65 645.07,183.20 666.81,171.71 688.53,160.18 710.22,148.60 731.89,136.98 753.54,125.32 775.16,113.62 796.76,101.88 818.34,90.09" fill="none" stroke="#111827" stroke-width="2.2" stroke-linecap="round" stroke-linejoin="round" opacity="0.85" stroke-dasharray="7 5"/>
<polyline points="161.22,424.91 183.44,414.39 205.64,403.83 227.82,393.22 249.98,382.57 272.12,371.87 294.23,361.13 316.33,350.34 338.40,339.50 360.45,328.62 382.47,317.70 404.48,306.73 426.46,295.72 448.42,284.66 470.36,273.56 492.28,262.42 514.17,251.23 536.04,240.00 557.90,228.73 579.72,217.41 601.53,206.05 623.31,194.65 645.07,183.20 666.81,171.71 688.53,160.18 710.22,148.60 731.89,136.98 753.54,125.32 775.16,113.62 796.76,101.88 818.34,90.09" fill="none" stroke="#94a3b8" stroke-width="1.0" stroke-linecap="round" stroke-linejoin="round" opacity="0.18"/>
<polyline points="161.22,424.91 183.44,414.37 205.64,403.78 227.82,393.16 250.00,382.50 272.15,371.80 294.28,361.06 316.39,350.27 338.48,339.45 360.54,328.58 382.59,317.66 404.61,306.71 426.62,295.70 448.60,284.65 470.56,273.56 492.49,262.42 514.40,251.25 536.30,240.02 558.16,228.73 580.00,217.43 601.82,206.05 623.62,194.63 645.38,183.18 667.13,171.69 688.86,160.15 710.56,148.55 732.25,136.95 753.91,125.29 775.55,113.59 797.18,101.86 818.78,90.09" fill="none" stroke="#94a3b8" stroke-width="1.0" stroke-linecap="round" stroke-linejoin="round" opacity="0.18"/>
<polyline points="161.22,424.91 183.39,414.30 205.56,403.64 227.71,392.93 249.84,382.19 271.94,371.40 294.02,360.58 316.08,349.72 338.15,338.83 360.19,327.90 382.18,316.93 404.19,305.93 426.17,294.89 448.13,283.81 470.07,272.70 491.99,261.56 513.90,250.37 535.78,239.16 557.65,227.88 579.50,216.60 601.33,205.27 623.15,193.90 644.94,182.52 666.71,171.09 688.47,159.61 710.21,148.12 731.93,136.58 753.63,125.02 775.32,113.41 796.99,101.76 818.63,90.09" fill="none" stroke="#94a3b8" stroke-width="1.0" stroke-linecap="round" stroke-linejoin="round" opacity="0.18"/>
<polyline points="161.22,424.91 183.44,414.43 205.66,403.89 227.84,393.31 250.00,382.68 272.15,372.00 294.25,361.28 316.34,350.51 338.43,339.69 360.48,328.83 382.49,317.92 404.50,306.97 426.49,295.97 448.44,284.93 470.38,273.83 492.28,262.70 514.17,251.52 536.04,240.29 557.88,229.00 579.69,217.69 601.50,206.31 623.26,194.89 644.99,183.43 666.72,171.92 688.41,160.36 710.08,148.75 731.73,137.11 753.36,125.42 774.96,113.69 796.54,101.91 818.09,90.09" fill="none" stroke="#94a3b8" stroke-width="1.0" stroke-linecap="round" stroke-linejoin="round" opacity="0.18"/>
<polyline points="161.22,424.91 183.57,414.70 205.90,404.44 228.21,394.12 250.50,383.74 272.75,373.30 294.97,362.79 317.16,352.22 339.32,341.59 361.45,330.88 383.53,320.10 405.58,309.25 427.61,298.33 449.59,287.34 471.53,276.27 493.43,265.13 515.31,253.93 537.15,242.63 558.93,231.28 580.70,219.85 602.42,208.36 624.11,196.77 645.77,185.15 667.38,173.48 688.97,161.70 710.53,149.90 732.06,138.06 753.56,126.14 775.04,114.19 796.48,102.15 817.89,90.09" fill="none" stroke="#94a3b8" stroke-width="1.0" stroke-linecap="round" stroke-linejoin="round" opacity="0.18"/>
<polyline points="161.22,424.91 183.49,414.49 205.74,404.03 227.95,393.52 250.18,382.96 272.35,372.35 294.49,361.69 316.64,350.99 338.75,340.23 360.84,329.42 382.90,318.56 404.92,307.65 426.93,296.68 448.91,285.66 470.86,274.58 492.78,263.44 514.66,252.25 536.53,241.01 558.37,229.69 580.18,218.35 601.97,206.94 623.72,195.46 645.45,183.95 667.14,172.39 688.81,160.78 710.45,149.11 732.07,137.41 753.66,125.63 775.23,113.83 796.78,101.97 818.30,90.09" fill="none" stroke="#94a3b8" stroke-width="1.0" stroke-linecap="round" stroke-linejoin="round" opacity="0.18"/>
<polyline points="161.22,424.91 183.33,414.15 205.43,403.35 227.52,392.51 249.58,381.64 271.63,370.74 293.67,359.81 315.68,348.86 337.70,337.88 359.70,326.87 381.66,315.83 403.63,304.76 425.58,293.68 447.53,282.57 469.47,271.43 491.38,260.28 513.30,249.10 535.20,237.91 557.08,226.67 578.96,215.44 600.83,204.18 622.69,192.89 644.54,181.58 666.37,170.26 688.19,158.89 709.99,147.50 731.78,136.09 753.55,124.64 775.31,113.17 797.05,101.63 818.76,90.09" fill="none" stroke="#94a3b8" stroke-width="1.0" stroke-linecap="round" stroke-linejoin="round" opacity="0.18"/>
<polyline points="161.22,424.91 183.41,414.32 205.60,403.68 227.76,393.01 249.90,382.30 272.02,371.55 294.12,360.76 316.21,349.93 338.28,339.07 360.33,328.16 382.34,317.22 404.35,306.23 426.35,295.20 448.31,284.14 470.26,273.04 492.18,261.88 514.09,250.73 535.98,239.50 557.85,228.22 579.69,216.94 601.51,205.59 623.33,194.21 645.11,182.79 666.88,171.35 688.62,159.85 710.35,148.33 732.06,136.77 753.74,125.15 775.40,113.51 797.05,101.81 818.67,90.09" fill="none" stroke="#94a3b8" stroke-width="1.0" stroke-linecap="round" stroke-linejoin="round" opacity="0.18"/>
<polyline points="161.22,424.91 183.54,414.62 205.84,404.28 228.12,393.88 250.39,383.44 272.61,372.93 294.80,362.37 316.98,351.75 339.13,341.07 361.24,330.33 383.30,319.52 405.36,308.65 427.37,297.71 449.36,286.71 471.32,275.64 493.22,264.50 515.10,253.31 536.95,242.03 558.77,230.69 580.55,219.29 602.31,207.84 624.03,196.32 645.71,184.73 667.36,173.09 688.98,161.38 710.58,149.63 732.14,137.81 753.68,125.96 775.19,114.04 796.67,102.09 818.13,90.09" fill="none" stroke="#94a3b8" stroke-width="1.0" stroke-linecap="round" stroke-linejoin="round" opacity="0.18"/>
<polyline points="161.22,424.91 183.49,414.54 205.74,404.11 227.97,393.63 250.18,383.10 272.36,372.51 294.49,361.86 316.62,351.16 338.72,340.40 360.79,329.59 382.83,318.72 404.84,307.80 426.83,296.82 448.80,285.79 470.73,274.71 492.64,263.56 514.50,252.37 536.35,241.11 558.17,229.78 579.97,218.43 601.72,207.02 623.47,195.54 645.17,184.03 666.85,172.46 688.51,160.83 710.13,149.15 731.74,137.45 753.31,125.68 774.86,113.86 796.39,101.99 817.88,90.09" fill="none" stroke="#94a3b8" stroke-width="1.0" stroke-linecap="round" stroke-linejoin="round" opacity="0.18"/>
<polyline points="161.22,424.91 183.44,414.40 205.64,403.85 227.82,393.25 250.00,382.61 272.14,371.92 294.25,361.19 316.34,350.41 338.41,339.58 360.46,328.71 382.49,317.80 404.50,306.84 426.49,295.84 448.45,284.80 470.39,273.71 492.31,262.57 514.21,251.39 536.08,240.16 557.93,228.87 579.74,217.56 601.54,206.20 623.33,194.76 645.07,183.30 666.80,171.81 688.50,160.26 710.18,148.67 731.84,137.05 753.48,125.36 775.09,113.65 796.68,101.89 818.25,90.09" fill="none" stroke="#94a3b8" stroke-width="1.0" stroke-linecap="round" stroke-linejoin="round" opacity="0.18"/>
<polyline points="161.22,424.91 183.44,414.38 205.66,403.82 227.86,393.22 250.03,382.57 272.18,371.88 294.32,361.15 316.42,350.38 338.53,339.56 360.61,328.70 382.64,317.79 404.66,306.83 426.67,295.83 448.65,284.78 470.60,273.69 492.52,262.55 514.43,251.36 536.32,240.11 558.17,228.83 580.00,217.49 601.82,206.11 623.62,194.69 645.37,183.23 667.11,171.73 688.84,160.16 710.53,148.57 732.21,136.95 753.87,125.29 775.51,113.59 797.14,101.84 818.74,90.09" fill="none" stroke="#94a3b8" stroke-width="1.0" stroke-linecap="round" stroke-linejoin="round" opacity="0.18"/>
<polyline points="161.22,424.91 183.39,414.27 205.55,403.59 227.69,392.88 249.82,382.12 271.92,371.33 294.01,360.51 316.07,349.64 338.14,338.75 360.17,327.82 382.18,316.85 404.17,305.85 426.17,294.82 448.13,283.75 470.08,272.65 492.00,261.51 513.91,250.34 535.82,239.12 557.68,227.87 579.53,216.60 601.37,205.29 623.20,193.92 644.99,182.53 666.77,171.11 688.53,159.64 710.28,148.15 732.00,136.61 753.70,125.03 775.39,113.43 797.05,101.76 818.70,90.09" fill="none" stroke="#94a3b8" stroke-width="1.0" stroke-linecap="round" stroke-linejoin="round" opacity="0.18"/>
<polyline points="161.22,424.91 183.43,414.40 205.63,403.83 227.81,393.22 249.97,382.57 272.09,371.87 294.19,361.12 316.28,350.33 338.35,339.49 360.38,328.60 382.39,317.66 404.38,306.68 426.36,295.65 448.31,284.59 470.23,273.48 492.13,262.32 514.03,251.15 535.90,239.90 557.73,228.61 579.56,217.31 601.37,205.95 623.15,194.55 644.91,183.12 666.64,171.64 688.36,160.11 710.05,148.55 731.72,136.95 753.37,125.31 774.99,113.60 796.60,101.86 818.17,90.09" fill="none" stroke="#94a3b8" stroke-width="1.0" stroke-linecap="round" stroke-linejoin="round" opacity="0.18"/>
<polyline points="161.22,424.91 183.56,414.68 205.89,404.40 228.18,394.07 250.47,383.68 272.70,373.22 294.92,362.70 317.11,352.12 339.26,341.48 361.39,330.77 383.46,319.99 405.52,309.14 427.53,298.22 449.51,287.23 471.47,276.16 493.37,265.02 515.24,253.83 537.08,242.55 558.89,231.18 580.65,219.78 602.39,208.31 624.09,196.74 645.75,185.13 667.38,173.46 688.97,161.72 710.53,149.92 732.06,138.07 753.56,126.15 775.03,114.19 796.47,102.15 817.88,90.09" fill="none" stroke="#94a3b8" stroke-width="1.0" stroke-linecap="round" stroke-linejoin="round" opacity="0.18"/>
<polyline points="161.22,424.91 183.51,414.55 205.79,404.14 228.04,393.68 250.27,383.18 272.48,372.62 294.64,362.00 316.80,351.34 338.93,340.62 361.01,329.84 383.07,319.00 405.11,308.10 427.13,297.14 449.10,286.13 471.06,275.05 492.98,263.90 514.85,252.71 536.71,241.45 558.53,230.11 580.32,218.74 602.10,207.30 623.83,195.80 645.53,184.26 667.21,172.67 688.86,161.01 710.48,149.30 732.08,137.57 753.65,125.76 775.19,113.93 796.71,102.02 818.21,90.09" fill="none" stroke="#94a3b8" stroke-width="1.0" stroke-linecap="round" stroke-linejoin="round" opacity="0.18"/>
<polyline points="161.22,424.91 183.33,414.16 205.45,403.38 227.53,392.56 249.61,381.71 271.66,370.82 293.70,359.91 315.73,348.98 337.75,338.01 359.75,327.02 381.73,315.99 403.70,304.94 425.67,293.87 447.61,282.77 469.55,271.64 491.47,260.49 513.38,249.33 535.28,238.13 557.16,226.89 579.04,215.66 600.90,204.38 622.76,193.07 644.59,181.74 666.40,170.39 688.21,159.01 710.00,147.60 731.78,136.17 753.54,124.69 775.28,113.20 797.01,101.65 818.72,90.09" fill="none" stroke="#94a3b8" stroke-width="1.0" stroke-linecap="round" stroke-linejoin="round" opacity="0.18"/>
<polyline points="161.22,424.91 183.39,414.27 205.56,403.59 227.69,392.88 249.82,382.12 271.92,371.33 294.01,360.50 316.07,349.64 338.14,338.75 360.17,327.82 382.18,316.86 404.19,305.86 426.17,294.83 448.15,283.76 470.08,272.66 492.02,261.51 513.93,250.35 535.82,239.12 557.70,227.87 579.54,216.58 601.38,205.27 623.21,193.90 645.01,182.50 666.78,171.09 688.54,159.61 710.29,148.10 732.01,136.58 753.72,125.02 775.41,113.41 797.08,101.76 818.72,90.09" fill="none" stroke="#94a3b8" stroke-width="1.0" stroke-linecap="round" stroke-linejoin="round" opacity="0.18"/>
<polyline points="161.22,424.91 183.54,414.60 205.84,404.24 228.10,393.83 250.36,383.36 272.57,372.84 294.75,362.26 316.93,351.62 339.08,340.92 361.18,330.17 383.25,319.35 405.29,308.46 427.32,297.52 449.30,286.50 471.25,275.43 493.16,264.28 515.05,253.08 536.91,241.82 558.72,230.48 580.50,219.10 602.26,207.64 623.99,196.11 645.67,184.53 667.34,172.91 688.97,161.22 710.58,149.48 732.16,137.70 753.71,125.86 775.23,113.98 796.74,102.06 818.22,90.09" fill="none" stroke="#94a3b8" stroke-width="1.0" stroke-linecap="round" stroke-linejoin="round" opacity="0.18"/>
<polyline points="161.22,424.91 183.49,414.55 205.76,404.14 227.99,393.67 250.21,383.15 272.38,372.57 294.53,361.93 316.65,351.24 338.77,340.49 360.84,329.68 382.88,318.82 404.90,307.91 426.90,296.94 448.86,285.92 470.80,274.84 492.70,263.70 514.58,252.51 536.43,241.27 558.25,229.96 580.05,218.61 601.80,207.20 623.55,195.72 645.25,184.19 666.92,172.62 688.57,160.97 710.19,149.28 731.79,137.55 753.35,125.76 774.89,113.93 796.40,102.02 817.88,90.09" fill="none" stroke="#94a3b8" stroke-width="1.0" stroke-linecap="round" stroke-linejoin="round" opacity="0.18"/>
<polyline points="161.22,424.91 183.46,414.44 205.68,403.92 227.87,393.35 250.05,382.73 272.18,372.06 294.30,361.34 316.41,350.57 338.48,339.75 360.53,328.88 382.56,317.97 404.56,307.01 426.54,296.00 448.49,284.94 470.43,273.84 492.33,262.68 514.22,251.49 536.08,240.26 557.91,228.96 579.72,217.64 601.53,206.26 623.30,194.84 645.04,183.38 666.76,171.87 688.46,160.31 710.13,148.72 731.79,137.08 753.42,125.41 775.02,113.69 796.60,101.89 818.16,90.09" fill="none" stroke="#94a3b8" stroke-width="1.0" stroke-linecap="round" stroke-linejoin="round" opacity="0.18"/>
<polyline points="161.22,424.91 183.57,414.70 205.90,404.44 228.21,394.12 250.50,383.74 272.75,373.30 294.97,362.79 317.16,352.22 339.32,341.59 361.45,330.88 383.53,320.10 405.58,309.25 427.61,298.33 449.59,287.34 471.53,276.27 493.43,265.13 515.31,253.93 537.15,242.63 558.93,231.28 580.70,219.85 602.42,208.36 624.11,196.77 645.77,185.15 667.38,173.48 688.97,161.70 710.53,149.90 732.06,138.06 753.56,126.14 775.04,114.19 796.48,102.15 817.89,90.09" fill="none" stroke="#059669" stroke-width="3.2" stroke-linecap="round" stroke-linejoin="round" opacity="1.0"/>
<text x="45" y="520" font-family="Arial, sans-serif" font-size="13" fill="#334155" font-weight="400" text-anchor="start">actual sag range 0.336 m; drawn displacement range x10</text>
</svg>
