<svg xmlns="http://www.w3.org/2000/svg" width="980" height="560" viewBox="0 0 980 560">
<rect width="100%" height="100%" fill="#f8fafc"/>
<text x="35" y="42" font-family="Arial, sans-serif" font-size="23" fill="#111827" font-weight="700" text-anchor="start">Sutong C_454m: positive / negative, displacement x10</text>
<text x="35" y="68" font-family="Arial, sans-serif" font-size="13" fill="#475569" font-weight="400" text-anchor="start">Dotted black = neutral static shape; red/blue = extrema. Only displacement from neutral is amplified.</text>
<rect x="35" y="88" width="910" height="390" fill="#ffffff" stroke="#cbd5e1"/>
<polyline points="172.56,419.14 194.02,408.98 215.46,398.79 236.87,388.54 258.27,378.26 279.64,367.93 300.99,357.55 322.32,347.14 343.63,336.68 364.92,326.17 386.19,315.62 407.44,305.04 428.66,294.40 449.86,283.73 471.05,273.01 492.21,262.25 513.35,251.45 534.47,240.60 555.56,229.72 576.64,218.79 597.69,207.82 618.72,196.81 639.73,185.76 660.72,174.67 681.69,163.53 702.63,152.36 723.56,141.14 744.46,129.88 765.34,118.58 786.19,107.24 807.03,95.86" fill="none" stroke="#111827" stroke-width="2.6" stroke-linecap="round" stroke-linejoin="round" opacity="0.9" stroke-dasharray="4 6"/>
<polyline points="172.56,419.14 193.91,408.75 215.25,398.32 236.58,387.86 257.88,377.36 279.17,366.84 300.44,356.29 321.70,345.71 342.96,335.11 364.20,324.48 385.41,313.82 406.62,303.13 427.81,292.43 449.00,281.70 470.18,270.95 491.35,260.18 512.50,249.39 533.65,238.58 554.78,227.73 575.90,216.89 597.02,206.02 618.13,195.12 639.22,184.19 660.30,173.27 681.36,162.29 702.42,151.29 723.45,140.28 744.47,129.22 765.48,118.14 786.47,107.01 807.44,95.86" fill="none" stroke="#dc2626" stroke-width="3.0" stroke-linecap="round" stroke-linejoin="round" opacity="0.95"/>
<polyline points="172.56,419.14 194.15,409.28 215.71,399.37 237.25,389.41 258.77,379.39 280.25,369.31 301.70,359.16 323.12,348.96 344.53,338.69 365.89,328.35 387.21,317.94 408.50,307.47 429.77,296.93 450.99,286.31 472.18,275.63 493.32,264.87 514.45,254.05 535.53,243.14 556.57,232.18 577.58,221.14 598.55,210.05 619.49,198.87 640.41,187.64 661.28,176.38 682.12,165.01 702.94,153.61 723.72,142.17 744.48,130.67 765.21,119.13 785.92,107.51 806.59,95.86" fill="none" stroke="#2563eb" stroke-width="3.0" stroke-linecap="round" stroke-linejoin="round" opacity="0.95"/>
<text x="45" y="510" font-family="Arial, sans-serif" font-size="13" fill="#334155" font-weight="400" text-anchor="start">actual signed mid displacement: -0.1810 m to +0.1426 m; drawn x10</text>
</svg>
