<svg xmlns="http://www.w3.org/2000/svg" width="980" height="560" viewBox="0 0 980 560">
<rect width="100%" height="100%" fill="#f8fafc"/>
<text x="35" y="42" font-family="Arial, sans-serif" font-size="23" fill="#111827" font-weight="700" text-anchor="start">Sutong C_454m: positive / negative / neutral</text>
<text x="35" y="68" font-family="Arial, sans-serif" font-size="13" fill="#475569" font-weight="400" text-anchor="start">Dotted black = neutral static shape; red = positive extreme; blue = negative extreme. Actual scale.</text>
<rect x="35" y="88" width="910" height="390" fill="#ffffff" stroke="#cbd5e1"/>
<polyline points="172.75,419.14 194.21,408.98 215.64,398.79 237.06,388.54 258.45,378.26 279.82,367.93 301.18,357.55 322.51,347.14 343.82,336.68 365.11,326.17 386.37,315.62 407.62,305.04 428.84,294.40 450.05,283.73 471.23,273.01 492.39,262.25 513.53,251.45 534.65,240.60 555.75,229.72 576.82,218.79 597.87,207.82 618.91,196.81 639.92,185.76 660.91,174.67 681.87,163.53 702.82,152.36 723.74,141.14 744.64,129.88 765.52,118.58 786.38,107.24 807.21,95.86" fill="none" stroke="#111827" stroke-width="2.6" stroke-linecap="round" stroke-linejoin="round" opacity="0.9" stroke-dasharray="4 6"/>
<polyline points="172.75,419.14 194.19,408.96 215.62,398.74 237.03,388.48 258.41,378.17 279.78,367.82 301.12,357.43 322.44,346.99 343.75,336.52 365.03,326.00 386.29,315.44 407.54,304.85 428.76,294.21 449.96,283.52 471.14,272.80 492.31,262.04 513.45,251.24 534.57,240.40 555.67,229.52 576.75,218.60 597.81,207.64 618.85,196.64 639.87,185.60 660.86,174.53 681.84,163.41 702.80,152.25 723.73,141.05 744.64,129.82 765.53,118.54 786.40,107.22 807.25,95.86" fill="none" stroke="#dc2626" stroke-width="3.0" stroke-linecap="round" stroke-linejoin="round" opacity="0.95"/>
<polyline points="172.75,419.14 194.22,409.01 215.67,398.85 237.09,388.63 258.50,378.37 279.88,368.07 301.25,357.72 322.59,347.32 343.91,336.88 365.20,326.39 386.48,315.86 407.73,305.28 428.96,294.65 450.16,283.99 471.34,273.27 492.50,262.51 513.64,251.71 534.76,240.86 555.85,229.97 576.92,219.03 597.96,208.05 618.98,197.02 639.98,185.95 660.96,174.84 681.92,163.68 702.85,152.48 723.76,141.24 744.64,129.96 765.51,118.64 786.35,107.27 807.17,95.86" fill="none" stroke="#2563eb" stroke-width="3.0" stroke-linecap="round" stroke-linejoin="round" opacity="0.95"/>
<text x="45" y="510" font-family="Arial, sans-serif" font-size="13" fill="#334155" font-weight="400" text-anchor="start">positive frame #00006: +0.1426 m; negative frame #00004: -0.1810 m</text>
</svg>
