<svg xmlns="http://www.w3.org/2000/svg" width="980" height="560" viewBox="0 0 980 560">
<rect width="100%" height="100%" fill="#f8fafc"/>
<text x="35" y="42" font-family="Arial, sans-serif" font-size="23" fill="#111827" font-weight="700" text-anchor="start">Sutong C_334m: positive / negative, displacement x10</text>
<text x="35" y="68" font-family="Arial, sans-serif" font-size="13" fill="#475569" font-weight="400" text-anchor="start">Dotted black = neutral static shape; red/blue = extrema. Only displacement from neutral is amplified.</text>
<rect x="35" y="88" width="910" height="390" fill="#ffffff" stroke="#cbd5e1"/>
<polyline points="250.23,419.14 266.42,408.69 282.60,398.21 298.76,387.72 314.91,377.20 331.04,366.65 347.15,356.09 363.26,345.50 379.34,334.89 395.42,324.25 411.47,313.60 427.52,302.92 443.54,292.22 459.56,281.50 475.55,270.75 491.54,259.98 507.51,249.19 523.46,238.38 539.40,227.55 555.32,216.69 571.23,205.82 587.13,194.92 603.01,184.00 618.87,173.06 634.72,162.10 650.56,151.11 666.38,140.10 682.18,129.07 697.97,118.03 713.75,106.96 729.51,95.86" fill="none" stroke="#111827" stroke-width="2.6" stroke-linecap="round" stroke-linejoin="round" opacity="0.9" stroke-dasharray="4 6"/>
<polyline points="250.23,419.14 266.39,408.62 282.53,398.08 298.66,387.52 314.77,376.94 330.87,366.34 346.98,355.73 363.05,345.09 379.14,334.45 395.17,323.78 411.23,313.10 427.27,302.40 443.30,291.69 459.31,280.96 475.31,270.21 491.31,259.45 507.28,248.66 523.27,237.86 539.21,227.05 555.15,216.21 571.09,205.33 587.01,194.47 602.92,183.59 618.81,172.68 634.70,161.75 650.58,150.83 666.44,139.86 682.29,128.90 698.13,117.89 713.96,106.89 729.77,95.86" fill="none" stroke="#dc2626" stroke-width="3.0" stroke-linecap="round" stroke-linejoin="round" opacity="0.95"/>
<polyline points="250.23,419.14 266.51,408.83 282.75,398.49 298.98,388.12 315.20,377.72 331.38,367.29 347.59,356.83 363.72,346.35 379.86,335.82 395.97,325.26 412.06,314.67 428.12,304.05 444.16,293.39 460.20,282.69 476.18,271.96 492.16,261.20 508.09,250.40 524.03,239.56 539.92,228.71 555.81,217.80 571.66,206.86 587.50,195.89 603.31,184.90 619.10,173.86 634.88,162.81 650.63,151.73 666.36,140.61 682.07,129.47 697.76,118.29 713.43,107.08 729.08,95.86" fill="none" stroke="#2563eb" stroke-width="3.0" stroke-linecap="round" stroke-linejoin="round" opacity="0.95"/>
<text x="45" y="510" font-family="Arial, sans-serif" font-size="13" fill="#334155" font-weight="400" text-anchor="start">actual signed mid displacement: -0.0784 m to +0.0330 m; drawn x10</text>
</svg>
