<svg xmlns="http://www.w3.org/2000/svg" width="980" height="560" viewBox="0 0 980 560">
<rect width="100%" height="100%" fill="#f8fafc"/>
<text x="35" y="42" font-family="Arial, sans-serif" font-size="23" fill="#111827" font-weight="700" text-anchor="start">Sutong C_547m: positive / negative / neutral</text>
<text x="35" y="68" font-family="Arial, sans-serif" font-size="13" fill="#475569" font-weight="400" text-anchor="start">Dotted black = neutral static shape; red = positive extreme; blue = negative extreme. Actual scale.</text>
<rect x="35" y="88" width="910" height="390" fill="#ffffff" stroke="#cbd5e1"/>
<polyline points="109.19,419.14 134.94,409.25 160.67,399.31 186.37,389.30 212.05,379.23 237.70,369.09 263.33,358.89 288.93,348.63 314.51,338.31 340.07,327.92 365.60,317.47 391.10,306.96 416.58,296.39 442.03,285.76 467.46,275.07 492.86,264.32 518.24,253.50 543.59,242.63 568.92,231.70 594.22,220.70 619.49,209.65 644.74,198.54 669.96,187.37 695.15,176.14 720.32,164.85 745.47,153.49 770.58,142.09 795.67,130.62 820.73,119.09 845.77,107.51 870.78,95.86" fill="none" stroke="#111827" stroke-width="2.6" stroke-linecap="round" stroke-linejoin="round" opacity="0.9" stroke-dasharray="4 6"/>
<polyline points="109.19,419.14 134.92,409.22 160.64,399.23 186.33,389.18 211.99,379.07 237.63,368.90 263.25,358.67 288.84,348.38 314.41,338.03 339.96,327.62 365.48,317.16 390.98,306.63 416.45,296.05 441.90,285.41 467.33,274.71 492.73,263.95 518.11,253.14 543.46,242.28 568.79,231.35 594.10,220.37 619.38,209.34 644.64,198.24 669.87,187.10 695.08,175.89 720.26,164.63 745.42,153.31 770.55,141.93 795.65,130.50 820.73,119.01 845.79,107.47 870.81,95.86" fill="none" stroke="#dc2626" stroke-width="3.0" stroke-linecap="round" stroke-linejoin="round" opacity="0.95"/>
<polyline points="109.19,419.14 134.96,409.31 160.70,399.41 186.43,389.45 212.12,379.43 237.79,369.34 263.44,359.18 289.06,348.96 314.65,338.68 340.22,328.32 365.76,317.90 391.27,307.42 416.76,296.86 442.21,286.24 467.64,275.56 493.05,264.81 518.42,253.99 543.77,243.11 569.09,232.16 594.38,221.14 619.64,210.07 644.87,198.93 670.08,187.72 695.26,176.45 720.41,165.12 745.53,153.73 770.63,142.28 795.69,130.76 820.73,119.19 845.75,107.56 870.73,95.86" fill="none" stroke="#2563eb" stroke-width="3.0" stroke-linecap="round" stroke-linejoin="round" opacity="0.95"/>
<text x="45" y="510" font-family="Arial, sans-serif" font-size="13" fill="#334155" font-weight="400" text-anchor="start">positive frame #00011: +0.2561 m; negative frame #00009: -0.3446 m</text>
</svg>
