<svg xmlns="http://www.w3.org/2000/svg" width="980" height="560" viewBox="0 0 980 560">
<rect width="100%" height="100%" fill="#f8fafc"/>
<text x="35" y="42" font-family="Arial, sans-serif" font-size="23" fill="#111827" font-weight="700" text-anchor="start">Sutong C_547m: displacement amplified x10</text>
<text x="35" y="68" font-family="Arial, sans-serif" font-size="13" fill="#475569" font-weight="400" text-anchor="start">Geometry base is unchanged; only frame-to-static displacement is multiplied by 10 for visibility.</text>
<rect x="35" y="88" width="910" height="390" fill="#ffffff" stroke="#cbd5e1"/>
<polyline points="95.38,424.91 122.05,414.67 148.70,404.37 175.32,394.01 201.92,383.57 228.49,373.07 255.03,362.51 281.55,351.88 308.04,341.19 334.51,330.43 360.95,319.61 387.36,308.73 413.75,297.78 440.12,286.77 466.45,275.70 492.76,264.56 519.05,253.36 545.30,242.10 571.53,230.78 597.73,219.39 623.91,207.94 650.06,196.43 676.18,184.86 702.28,173.23 728.35,161.54 754.39,149.78 780.40,137.96 806.38,126.09 832.34,114.15 858.27,102.15 884.17,90.09" fill="none" stroke="#111827" stroke-width="2.2" stroke-linecap="round" stroke-linejoin="round" opacity="0.85" stroke-dasharray="7 5"/>
<polyline points="95.38,424.91 122.05,414.67 148.70,404.37 175.32,394.01 201.92,383.57 228.49,373.07 255.03,362.51 281.55,351.88 308.04,341.19 334.51,330.43 360.95,319.61 387.36,308.73 413.75,297.78 440.12,286.77 466.45,275.70 492.76,264.56 519.05,253.36 545.30,242.10 571.53,230.78 597.73,219.39 623.91,207.94 650.06,196.43 676.18,184.86 702.28,173.23 728.35,161.54 754.39,149.78 780.40,137.96 806.38,126.09 832.34,114.15 858.27,102.15 884.17,90.09" fill="none" stroke="#94a3b8" stroke-width="1.0" stroke-linecap="round" stroke-linejoin="round" opacity="0.18"/>
<polyline points="95.38,424.91 122.05,414.64 148.70,404.31 175.34,393.93 201.95,383.49 228.53,373.00 255.09,362.45 281.63,351.83 308.15,341.15 334.63,330.42 361.11,319.62 387.54,308.75 413.94,297.82 440.34,286.82 466.69,275.75 493.01,264.62 519.30,253.42 545.58,242.15 571.81,230.82 598.03,219.44 624.21,207.97 650.37,196.43 676.50,184.85 702.61,173.21 728.69,161.49 754.74,149.73 780.76,137.90 806.76,126.04 832.74,114.10 858.69,102.12 884.62,90.09" fill="none" stroke="#94a3b8" stroke-width="1.0" stroke-linecap="round" stroke-linejoin="round" opacity="0.18"/>
<polyline points="95.38,424.91 122.01,414.55 148.62,404.13 175.21,393.66 201.79,383.14 228.33,372.56 254.86,361.93 281.36,351.24 307.84,340.49 334.31,329.69 360.73,318.84 387.15,307.93 413.53,296.96 439.90,285.94 466.25,274.87 492.56,263.73 518.84,252.55 545.13,241.29 571.38,229.98 597.59,218.62 623.79,207.21 649.97,195.73 676.12,184.21 702.25,172.63 728.35,161.00 754.43,149.33 780.49,137.57 806.52,125.79 832.53,113.94 858.51,102.04 884.46,90.09" fill="none" stroke="#94a3b8" stroke-width="1.0" stroke-linecap="round" stroke-linejoin="round" opacity="0.18"/>
<polyline points="95.38,424.91 122.04,414.67 148.68,404.36 175.29,393.99 201.87,383.54 228.42,373.03 254.95,362.44 281.44,351.79 307.93,341.08 334.37,330.30 360.81,319.47 387.19,308.57 413.57,297.61 439.93,286.58 466.25,275.50 492.54,264.36 518.81,253.16 545.07,241.88 571.28,230.56 597.48,219.19 623.66,207.75 649.81,196.26 675.92,184.71 702.03,173.10 728.09,161.43 754.14,149.70 780.15,137.90 806.13,126.05 832.09,114.12 858.02,102.13 883.91,90.09" fill="none" stroke="#94a3b8" stroke-width="1.0" stroke-linecap="round" stroke-linejoin="round" opacity="0.18"/>
<polyline points="95.38,424.91 122.16,414.99 148.92,405.00 175.65,394.92 202.34,384.77 229.00,374.54 255.64,364.22 282.24,353.82 308.81,343.33 335.34,332.75 361.83,322.09 388.29,311.33 414.71,300.48 441.09,289.54 467.44,278.51 493.73,267.38 519.99,256.17 546.23,244.84 572.41,233.44 598.57,221.96 624.66,210.37 650.73,198.69 676.76,186.95 702.76,175.13 728.72,163.20 754.64,151.22 780.53,139.12 806.37,126.98 832.18,114.76 857.96,102.45 883.71,90.09" fill="none" stroke="#94a3b8" stroke-width="1.0" stroke-linecap="round" stroke-linejoin="round" opacity="0.18"/>
<polyline points="95.38,424.91 122.16,414.96 148.92,404.94 175.66,394.85 202.37,384.69 229.03,374.46 255.69,364.15 282.30,353.75 308.89,343.28 335.43,332.71 361.95,322.06 388.41,311.31 414.85,300.47 441.24,289.53 467.61,278.50 493.92,267.37 520.19,256.15 546.43,244.83 572.61,233.41 598.78,221.90 624.88,210.31 650.97,198.61 677.01,186.85 703.03,175.02 728.99,163.09 754.93,151.10 780.83,139.03 806.70,126.89 832.53,114.68 858.34,102.42 884.12,90.09" fill="none" stroke="#94a3b8" stroke-width="1.0" stroke-linecap="round" stroke-linejoin="round" opacity="0.18"/>
<polyline points="95.38,424.91 121.96,414.43 148.54,403.90 175.09,393.31 201.62,382.68 228.13,371.99 254.61,361.26 281.08,350.48 307.54,339.66 333.98,328.80 360.39,317.89 386.79,306.93 413.16,295.93 439.52,284.87 465.86,273.78 492.17,262.63 518.47,251.47 544.77,240.24 571.02,228.97 597.28,217.65 623.49,206.30 649.70,194.88 675.89,183.44 702.06,171.94 728.20,160.39 754.32,148.81 780.42,137.17 806.50,125.47 832.56,113.73 858.59,101.93 884.60,90.09" fill="none" stroke="#94a3b8" stroke-width="1.0" stroke-linecap="round" stroke-linejoin="round" opacity="0.18"/>
<polyline points="95.38,424.91 121.91,414.30 148.42,403.64 174.91,392.92 201.38,382.16 227.83,371.34 254.26,360.49 280.67,349.59 307.09,338.66 333.46,327.68 359.84,316.67 386.17,305.63 412.52,294.56 438.85,283.46 465.17,272.33 491.48,261.18 517.76,249.99 544.06,238.78 570.33,227.55 596.61,216.30 622.85,205.01 649.09,193.68 675.31,182.34 701.53,170.96 727.73,159.53 753.91,148.09 780.07,136.59 806.21,125.04 832.33,113.44 858.43,101.79 884.50,90.09" fill="none" stroke="#94a3b8" stroke-width="1.0" stroke-linecap="round" stroke-linejoin="round" opacity="0.18"/>
<polyline points="95.38,424.91 122.12,414.87 148.84,404.75 175.54,394.56 202.20,384.30 228.82,373.97 255.44,363.57 282.00,353.09 308.56,342.53 335.06,331.90 361.54,321.19 387.99,310.39 414.41,299.52 440.79,288.56 467.14,277.52 493.44,266.39 519.72,255.18 545.96,243.89 572.16,232.52 598.33,221.07 624.46,209.53 650.56,197.91 676.62,186.23 702.67,174.47 728.66,162.62 754.62,150.70 780.55,138.70 806.44,126.65 832.31,114.52 858.15,102.34 883.96,90.09" fill="none" stroke="#94a3b8" stroke-width="1.0" stroke-linecap="round" stroke-linejoin="round" opacity="0.18"/>
<polyline points="95.38,424.91 122.26,415.22 149.11,405.46 175.93,395.62 202.71,385.69 229.46,375.67 256.17,365.56 282.85,355.34 309.50,345.03 336.08,334.60 362.64,324.06 389.14,313.41 415.59,302.64 442.00,291.75 468.36,280.75 494.66,269.62 520.91,258.39 547.13,247.02 573.29,235.54 599.40,223.95 625.45,212.25 651.46,200.43 677.42,188.51 703.34,176.52 729.23,164.40 755.07,152.22 780.87,139.95 806.63,127.61 832.35,115.17 858.04,102.67 883.70,90.09" fill="none" stroke="#94a3b8" stroke-width="1.0" stroke-linecap="round" stroke-linejoin="round" opacity="0.18"/>
<polyline points="95.38,424.91 122.07,414.74 148.75,404.49 175.40,394.18 202.01,383.80 228.60,373.36 255.16,362.84 281.69,352.26 308.21,341.61 334.68,330.89 361.14,320.11 387.57,309.26 413.96,298.34 440.34,287.35 466.69,276.29 492.98,265.17 519.25,253.97 545.52,242.70 571.74,231.36 597.94,219.95 624.08,208.49 650.22,196.94 676.32,185.33 702.40,173.67 728.45,161.91 754.46,150.11 780.44,138.22 806.39,126.29 832.32,114.29 858.21,102.21 884.08,90.09" fill="none" stroke="#94a3b8" stroke-width="1.0" stroke-linecap="round" stroke-linejoin="round" opacity="0.18"/>
<polyline points="95.38,424.91 121.90,414.26 148.40,403.56 174.88,392.80 201.34,382.00 227.77,371.15 254.18,360.25 280.59,349.32 306.98,338.36 333.35,327.36 359.71,316.33 386.06,305.27 412.39,294.19 438.72,283.08 465.06,271.95 491.35,260.80 517.65,249.63 543.95,238.42 570.22,227.19 596.50,215.96 622.75,204.68 649.00,193.36 675.23,182.04 701.46,170.69 727.68,159.30 753.87,147.88 780.06,136.40 806.22,124.91 832.36,113.35 858.48,101.74 884.58,90.09" fill="none" stroke="#94a3b8" stroke-width="1.0" stroke-linecap="round" stroke-linejoin="round" opacity="0.18"/>
<polyline points="95.38,424.91 122.01,414.54 148.62,404.10 175.21,393.61 201.77,383.06 228.31,372.46 254.83,361.81 281.33,351.11 307.82,340.36 334.27,329.55 360.71,318.69 387.11,307.78 413.50,296.82 439.88,285.79 466.23,274.72 492.54,263.59 518.84,252.42 545.13,241.18 571.38,229.88 597.61,218.53 623.80,207.13 649.98,195.65 676.14,184.13 702.28,172.57 728.38,160.94 754.46,149.26 780.52,137.53 806.56,125.76 832.58,113.91 858.57,102.02 884.53,90.09" fill="none" stroke="#94a3b8" stroke-width="1.0" stroke-linecap="round" stroke-linejoin="round" opacity="0.18"/>
<polyline points="95.38,424.91 122.18,415.03 148.98,405.09 175.74,395.07 202.46,384.97 229.16,374.79 255.81,364.53 282.44,354.17 309.04,343.73 335.59,333.20 362.11,322.57 388.59,311.84 415.02,301.01 441.43,290.09 467.78,279.06 494.09,267.93 520.36,256.71 546.60,245.37 572.77,233.94 598.93,222.41 625.02,210.79 651.08,199.08 677.09,187.28 703.09,175.41 729.03,163.43 754.94,151.38 780.81,139.25 806.65,127.06 832.47,114.79 858.25,102.46 884.00,90.09" fill="none" stroke="#94a3b8" stroke-width="1.0" stroke-linecap="round" stroke-linejoin="round" opacity="0.18"/>
<polyline points="95.38,424.91 122.15,414.94 148.89,404.90 175.60,394.78 202.28,384.58 228.91,374.29 255.53,363.93 282.11,353.48 308.65,342.95 335.17,332.34 361.65,321.64 388.09,310.85 414.51,299.99 440.88,289.03 467.22,278.00 493.51,266.88 519.78,255.68 546.02,244.37 572.21,233.00 598.38,221.54 624.48,209.98 650.56,198.33 676.61,186.62 702.62,174.83 728.59,162.93 754.53,150.99 780.43,138.94 806.29,126.84 832.13,114.65 857.93,102.40 883.70,90.09" fill="none" stroke="#94a3b8" stroke-width="1.0" stroke-linecap="round" stroke-linejoin="round" opacity="0.18"/>
<polyline points="95.38,424.91 122.02,414.62 148.65,404.26 175.24,393.83 201.81,383.34 228.33,372.77 254.86,362.15 281.35,351.46 307.81,340.71 334.24,329.90 360.67,319.04 387.05,308.13 413.42,297.15 439.77,286.12 466.11,275.03 492.39,263.89 518.67,252.69 544.93,241.43 571.16,230.12 597.36,218.76 623.54,207.35 649.70,195.85 675.84,184.33 701.95,172.74 728.04,161.11 754.11,149.42 780.14,137.67 806.15,125.87 832.14,113.99 858.10,102.07 884.03,90.09" fill="none" stroke="#94a3b8" stroke-width="1.0" stroke-linecap="round" stroke-linejoin="round" opacity="0.18"/>
<polyline points="95.38,424.91 122.01,414.55 148.64,404.13 175.23,393.67 201.81,383.15 228.35,372.57 254.89,361.94 281.39,351.25 307.87,340.51 334.34,329.71 360.78,318.86 387.19,307.96 413.58,297.01 439.96,285.99 466.31,274.92 492.64,263.79 518.94,252.62 545.22,241.36 571.47,230.07 597.69,218.70 623.88,207.28 650.06,195.79 676.20,184.27 702.34,172.68 728.44,161.03 754.52,149.36 780.57,137.60 806.60,125.80 832.61,113.94 858.60,102.04 884.55,90.09" fill="none" stroke="#94a3b8" stroke-width="1.0" stroke-linecap="round" stroke-linejoin="round" opacity="0.18"/>
<polyline points="95.38,424.91 122.05,414.66 148.72,404.37 175.37,394.01 201.98,383.59 228.56,373.11 255.12,362.57 281.66,351.95 308.18,341.28 334.67,330.55 361.14,319.75 387.57,308.88 413.97,297.94 440.35,286.94 466.70,275.87 493.03,264.73 519.31,253.53 545.58,242.27 571.83,230.93 598.05,219.53 624.21,208.07 650.37,196.53 676.50,184.93 702.59,173.28 728.66,161.57 754.71,149.80 780.73,137.95 806.72,126.07 832.69,114.13 858.64,102.13 884.56,90.09" fill="none" stroke="#94a3b8" stroke-width="1.0" stroke-linecap="round" stroke-linejoin="round" opacity="0.18"/>
<polyline points="95.38,424.91 122.05,414.70 148.72,404.41 175.34,394.06 201.93,383.64 228.50,373.15 255.05,362.60 281.57,351.98 308.06,341.29 334.52,330.55 360.97,319.73 387.38,308.86 413.77,297.92 440.13,286.91 466.47,275.84 492.76,264.70 519.05,253.52 545.30,242.26 571.53,230.93 597.73,219.56 623.90,208.10 650.05,196.58 676.15,184.99 702.25,173.35 728.30,161.65 754.33,149.87 780.33,138.04 806.30,126.15 832.24,114.18 858.16,102.16 884.04,90.09" fill="none" stroke="#94a3b8" stroke-width="1.0" stroke-linecap="round" stroke-linejoin="round" opacity="0.18"/>
<polyline points="95.38,424.91 122.10,414.84 148.79,404.69 175.46,394.46 202.09,384.16 228.69,373.78 255.27,363.33 281.82,352.80 308.32,342.20 334.81,331.52 361.26,320.76 387.68,309.92 414.07,299.01 440.43,288.03 466.77,276.97 493.06,265.83 519.31,254.63 545.57,243.34 571.75,231.97 597.92,220.53 624.05,209.02 650.16,197.42 676.23,185.77 702.28,174.06 728.29,162.26 754.27,150.41 780.21,138.47 806.13,126.48 832.02,114.41 857.87,102.27 883.70,90.09" fill="none" stroke="#94a3b8" stroke-width="1.0" stroke-linecap="round" stroke-linejoin="round" opacity="0.18"/>
<polyline points="95.38,424.91 122.15,414.95 148.90,404.92 175.63,394.81 202.32,384.63 228.99,374.37 255.61,364.03 282.21,353.61 308.79,343.11 335.32,332.53 361.83,321.87 388.29,311.11 414.71,300.26 441.10,289.32 467.47,278.28 493.78,267.16 520.05,255.95 546.29,244.64 572.47,233.24 598.64,221.76 624.76,210.17 650.83,198.50 676.87,186.76 702.89,174.94 728.86,163.02 754.80,151.05 780.70,138.98 806.56,126.87 832.40,114.67 858.21,102.40 883.99,90.09" fill="none" stroke="#94a3b8" stroke-width="1.0" stroke-linecap="round" stroke-linejoin="round" opacity="0.18"/>
<polyline points="95.38,424.91 122.26,415.22 149.11,405.46 175.93,395.62 202.71,385.69 229.46,375.67 256.17,365.56 282.85,355.34 309.50,345.03 336.08,334.60 362.64,324.06 389.14,313.41 415.59,302.64 442.00,291.75 468.36,280.75 494.66,269.62 520.91,258.39 547.13,247.02 573.29,235.54 599.40,223.95 625.45,212.25 651.46,200.43 677.42,188.51 703.34,176.52 729.23,164.40 755.07,152.22 780.87,139.95 806.63,127.61 832.35,115.17 858.04,102.67 883.70,90.09" fill="none" stroke="#dc2626" stroke-width="3.2" stroke-linecap="round" stroke-linejoin="round" opacity="1.0"/>
<text x="45" y="520" font-family="Arial, sans-serif" font-size="13" fill="#334155" font-weight="400" text-anchor="start">actual sag range 0.612 m; drawn displacement range x10</text>
</svg>
