<svg xmlns="http://www.w3.org/2000/svg" width="980" height="560" viewBox="0 0 980 560">
<rect width="100%" height="100%" fill="#f8fafc"/>
<text x="35" y="42" font-family="Arial, sans-serif" font-size="23" fill="#111827" font-weight="700" text-anchor="start">Sutong C_334m: positive / negative / neutral</text>
<text x="35" y="68" font-family="Arial, sans-serif" font-size="13" fill="#475569" font-weight="400" text-anchor="start">Dotted black = neutral static shape; red = positive extreme; blue = negative extreme. Actual scale.</text>
<rect x="35" y="88" width="910" height="390" fill="#ffffff" stroke="#cbd5e1"/>
<polyline points="250.35,419.14 266.54,408.69 282.72,398.21 298.88,387.72 315.02,377.20 331.16,366.65 347.27,356.09 363.37,345.50 379.46,334.89 395.53,324.25 411.59,313.60 427.63,302.92 443.66,292.22 459.67,281.50 475.67,270.75 491.65,259.98 507.62,249.19 523.58,238.38 539.52,227.55 555.44,216.69 571.35,205.82 587.24,194.92 603.12,184.00 618.99,173.06 634.84,162.10 650.67,151.11 666.49,140.10 682.30,129.07 698.09,118.03 713.86,106.96 729.63,95.86" fill="none" stroke="#111827" stroke-width="2.6" stroke-linecap="round" stroke-linejoin="round" opacity="0.9" stroke-dasharray="4 6"/>
<polyline points="250.35,419.14 266.54,408.68 282.71,398.20 298.87,387.70 315.01,377.17 331.14,366.62 347.25,356.05 363.35,345.46 379.44,334.84 395.51,324.21 411.57,313.55 427.61,302.87 443.64,292.17 459.65,281.44 475.65,270.70 491.63,259.93 507.60,249.14 523.56,238.33 539.50,227.50 555.42,216.65 571.34,205.77 587.23,194.88 603.12,183.96 618.98,173.02 634.84,162.06 650.68,151.08 666.50,140.08 682.31,129.06 698.11,118.01 713.89,106.95 729.65,95.86" fill="none" stroke="#dc2626" stroke-width="3.0" stroke-linecap="round" stroke-linejoin="round" opacity="0.95"/>
<polyline points="250.35,419.14 266.55,408.70 282.73,398.24 298.90,387.76 315.05,377.25 331.19,366.72 347.31,356.16 363.42,345.58 379.51,334.98 395.59,324.36 411.65,313.71 427.69,303.03 443.72,292.34 459.74,281.62 475.73,270.87 491.72,260.11 507.68,249.31 523.63,238.50 539.57,227.67 555.49,216.81 571.39,205.92 587.28,195.02 603.16,184.09 619.01,173.14 634.86,162.17 650.68,151.17 666.49,140.15 682.29,129.11 698.07,118.05 713.83,106.97 729.58,95.86" fill="none" stroke="#2563eb" stroke-width="3.0" stroke-linecap="round" stroke-linejoin="round" opacity="0.95"/>
<text x="45" y="510" font-family="Arial, sans-serif" font-size="13" fill="#334155" font-weight="400" text-anchor="start">positive frame #00002: +0.0330 m; negative frame #00019: -0.0784 m</text>
</svg>
