<svg xmlns="http://www.w3.org/2000/svg" width="1100" height="720" viewBox="0 0 1100 720">
<rect width="100%" height="100%" fill="#f8fafc"/>
<text x="40" y="44" font-family="Arial, sans-serif" font-size="24" fill="#111827" text-anchor="start" font-weight="700">Sutong 2008: initial vs max-sag frame (side view x-z)</text>
<text x="40" y="70" font-family="Arial, sans-serif" font-size="13" fill="#475569" text-anchor="start" font-weight="400">Solid = max-sag frame; dashed = initial frame. Generated from /tmp/cable_verify_sutong_2008/paraview/*.vtp</text>
<rect x="40" y="92" width="1020" height="560" fill="#ffffff" stroke="#cbd5e1"/>
<polyline points="501.66,528.75 519.50,517.23 537.34,505.68 555.15,494.11 572.95,482.51 590.74,470.89 608.50,459.24 626.25,447.57 643.99,435.87 661.70,424.15 679.41,412.40 697.09,400.63 714.76,388.84 732.41,377.01 750.05,365.17 767.67,353.30 785.27,341.41 802.86,329.49 820.43,317.54 837.98,305.58 855.52,293.59 873.04,281.58 890.55,269.54 908.04,257.48 925.51,245.39 942.97,233.28 960.41,221.15 977.83,208.99 995.24,196.81 1012.63,184.60 1030.00,172.38" fill="none" stroke="#2563eb" stroke-width="2.0" stroke-linecap="round" stroke-linejoin="round" opacity="0.45" stroke-dasharray="7 5"/>
<polyline points="501.66,528.75 519.51,517.24 537.35,505.71 555.18,494.15 572.98,482.57 590.77,470.96 608.55,459.32 626.30,447.66 644.04,435.98 661.77,424.26 679.47,412.52 697.16,400.76 714.83,388.96 732.48,377.15 750.12,365.30 767.73,353.43 785.34,341.54 802.92,329.62 820.49,317.67 838.04,305.70 855.57,293.70 873.08,281.68 890.58,269.64 908.06,257.56 925.53,245.47 942.97,233.35 960.40,221.20 977.82,209.03 995.21,196.84 1012.59,184.62 1029.95,172.38" fill="none" stroke="#2563eb" stroke-width="3.0" stroke-linecap="round" stroke-linejoin="round" opacity="0.95"/>
<text x="765" y="105" font-family="Arial, sans-serif" font-size="15" fill="#2563eb" text-anchor="start" font-weight="700">C_334m: sag range 0.122 m</text>
<polyline points="258.44,528.75 284.53,516.40 310.60,504.00 336.65,491.54 362.66,479.04 388.65,466.47 414.62,453.86 440.56,441.19 466.47,428.47 492.36,415.69 518.23,402.87 544.06,389.99 569.87,377.06 595.66,364.08 621.42,351.04 647.15,337.96 672.86,324.82 698.54,311.64 724.20,298.40 749.83,285.11 775.43,271.77 801.00,258.38 826.56,244.94 852.08,231.45 877.58,217.91 903.05,204.32 928.49,190.68 953.91,176.99 979.30,163.25 1004.66,149.46 1030.00,135.62" fill="none" stroke="#059669" stroke-width="2.0" stroke-linecap="round" stroke-linejoin="round" opacity="0.45" stroke-dasharray="7 5"/>
<polyline points="258.44,528.75 284.55,516.44 310.63,504.07 336.69,491.65 362.72,479.17 388.73,466.64 414.71,454.05 440.66,441.41 466.58,428.71 492.48,415.96 518.35,403.15 544.19,390.29 570.01,377.37 595.80,364.39 621.56,351.36 647.29,338.28 672.99,325.14 698.67,311.95 724.32,298.70 749.94,285.40 775.53,272.04 801.10,258.63 826.64,245.17 852.15,231.66 877.63,218.09 903.08,204.47 928.51,190.81 953.91,177.09 979.28,163.32 1004.63,149.49 1029.95,135.62" fill="none" stroke="#059669" stroke-width="3.0" stroke-linecap="round" stroke-linejoin="round" opacity="0.95"/>
<text x="765" y="129" font-family="Arial, sans-serif" font-size="15" fill="#059669" text-anchor="start" font-weight="700">C_454m: sag range 0.336 m</text>
<polyline points="70.00,528.75 102.46,516.29 134.89,503.75 167.29,491.13 199.66,478.44 232.00,465.66 264.30,452.80 296.58,439.87 328.82,426.86 361.03,413.77 393.21,400.60 425.36,387.35 457.48,374.03 489.56,360.62 521.61,347.15 553.63,333.59 585.62,319.96 617.58,306.26 649.50,292.48 681.39,278.62 713.25,264.69 745.08,250.68 776.87,236.60 808.63,222.44 840.35,208.21 872.05,193.90 903.70,179.52 935.33,165.06 966.92,150.53 998.48,135.93 1030.00,121.25" fill="none" stroke="#dc2626" stroke-width="2.0" stroke-linecap="round" stroke-linejoin="round" opacity="0.45" stroke-dasharray="7 5"/>
<polyline points="70.00,528.75 102.49,516.36 134.94,503.89 167.36,491.33 199.76,478.70 232.11,465.98 264.44,453.18 296.74,440.29 329.00,427.32 361.22,414.27 393.42,401.14 425.58,387.92 457.70,374.62 489.79,361.23 521.85,347.76 553.87,334.21 585.85,320.57 617.80,306.86 649.72,293.06 681.59,279.17 713.44,265.21 745.25,251.17 777.02,237.04 808.76,222.84 840.46,208.56 872.13,194.20 903.76,179.76 935.36,165.25 966.92,150.66 998.45,135.99 1029.94,121.25" fill="none" stroke="#dc2626" stroke-width="3.0" stroke-linecap="round" stroke-linejoin="round" opacity="0.95"/>
<text x="765" y="153" font-family="Arial, sans-serif" font-size="15" fill="#dc2626" text-anchor="start" font-weight="700">C_547m: sag range 0.612 m</text>
<text x="55" y="680" font-family="Arial, sans-serif" font-size="13" fill="#475569" text-anchor="start" font-weight="400">Axes use equal scale in x-z projection; y is omitted because these examples are planar.</text>
</svg>
