<svg xmlns="http://www.w3.org/2000/svg" width="980" height="560" viewBox="0 0 980 560">
<rect width="100%" height="100%" fill="#f8fafc"/>
<text x="35" y="42" font-family="Arial, sans-serif" font-size="23" fill="#111827" font-weight="700" text-anchor="start">Sutong C_547m: positive / negative, displacement x10</text>
<text x="35" y="68" font-family="Arial, sans-serif" font-size="13" fill="#475569" font-weight="400" text-anchor="start">Dotted black = neutral static shape; red/blue = extrema. Only displacement from neutral is amplified.</text>
<rect x="35" y="88" width="910" height="390" fill="#ffffff" stroke="#cbd5e1"/>
<polyline points="109.01,419.14 134.76,409.25 160.49,399.31 186.19,389.30 211.87,379.23 237.52,369.09 263.15,358.89 288.76,348.63 314.34,338.31 339.89,327.92 365.42,317.47 390.92,306.96 416.40,296.39 441.86,285.76 467.28,275.07 492.69,264.32 518.06,253.50 543.41,242.63 568.74,231.70 594.04,220.70 619.31,209.65 644.56,198.54 669.78,187.37 694.98,176.14 720.15,164.85 745.29,153.49 770.40,142.09 795.49,130.62 820.55,119.09 845.59,107.51 870.60,95.86" fill="none" stroke="#111827" stroke-width="2.6" stroke-linecap="round" stroke-linejoin="round" opacity="0.9" stroke-dasharray="4 6"/>
<polyline points="109.01,419.14 134.61,408.86 160.20,398.52 185.77,388.14 211.31,377.70 236.83,367.23 262.33,356.71 287.83,346.16 313.31,335.57 338.77,324.95 364.22,314.30 389.67,303.62 415.09,292.92 440.51,282.20 465.94,271.45 491.32,260.69 516.72,249.90 542.11,239.08 567.47,228.23 592.84,217.39 618.19,206.51 643.53,195.58 668.86,184.64 694.19,173.68 719.50,162.68 744.79,151.66 770.07,140.57 795.33,129.48 820.57,118.32 845.80,107.11 870.99,95.86" fill="none" stroke="#dc2626" stroke-width="3.0" stroke-linecap="round" stroke-linejoin="round" opacity="0.95"/>
<polyline points="109.01,419.14 134.96,409.79 160.88,400.36 186.78,390.86 212.64,381.27 238.46,371.60 264.26,361.83 290.01,351.97 315.74,342.01 341.40,331.94 367.05,321.77 392.63,311.48 418.17,301.08 443.67,290.57 469.13,279.95 494.52,269.20 519.86,258.36 545.18,247.38 570.43,236.30 595.64,225.11 620.80,213.81 645.91,202.40 670.98,190.89 696.01,179.31 721.00,167.61 745.94,155.85 770.86,144.01 795.73,132.09 820.57,120.07 845.37,108.01 870.14,95.86" fill="none" stroke="#2563eb" stroke-width="3.0" stroke-linecap="round" stroke-linejoin="round" opacity="0.95"/>
<text x="45" y="510" font-family="Arial, sans-serif" font-size="13" fill="#334155" font-weight="400" text-anchor="start">actual signed mid displacement: -0.3446 m to +0.2561 m; drawn x10</text>
</svg>
