<svg xmlns="http://www.w3.org/2000/svg" width="980" height="560" viewBox="0 0 980 560">
<rect width="100%" height="100%" fill="#f8fafc"/>
<text x="35" y="42" font-family="Arial, sans-serif" font-size="23" fill="#111827" font-weight="700" text-anchor="start">Sutong C_454m: actual-scale motion trail</text>
<text x="35" y="68" font-family="Arial, sans-serif" font-size="13" fill="#475569" font-weight="400" text-anchor="start">Gray = all output frames, black dashed = static t=0, red/green/blue = max-sag frame. Equal x-z scale.</text>
<rect x="35" y="88" width="910" height="390" fill="#ffffff" stroke="#cbd5e1"/>
<polyline points="161.42,424.91 183.64,414.39 205.84,403.83 228.02,393.22 250.18,382.57 272.32,371.87 294.43,361.13 316.52,350.34 338.59,339.50 360.64,328.62 382.67,317.70 404.68,306.73 426.66,295.72 448.62,284.66 470.56,273.56 492.48,262.42 514.37,251.23 536.24,240.00 558.09,228.73 579.92,217.41 601.73,206.05 623.51,194.65 645.27,183.20 667.01,171.71 688.72,160.18 710.42,148.60 732.09,136.98 753.73,125.32 775.36,113.62 796.96,101.88 818.54,90.09" fill="none" stroke="#94a3b8" stroke-width="1.2" stroke-linecap="round" stroke-linejoin="round" opacity="0.22"/>
<polyline points="161.42,424.91 183.64,414.39 205.84,403.83 228.02,393.22 250.18,382.56 272.32,371.86 294.44,361.12 316.53,350.33 338.60,339.50 360.65,328.62 382.68,317.70 404.69,306.73 426.68,295.72 448.64,284.66 470.58,273.56 492.50,262.42 514.39,251.23 536.27,240.00 558.12,228.73 579.95,217.41 601.76,206.05 623.54,194.64 645.30,183.20 667.04,171.71 688.76,160.17 710.45,148.60 732.12,136.98 753.77,125.32 775.40,113.62 797.00,101.88 818.58,90.09" fill="none" stroke="#94a3b8" stroke-width="1.2" stroke-linecap="round" stroke-linejoin="round" opacity="0.22"/>
<polyline points="161.42,424.91 183.64,414.38 205.83,403.81 228.01,393.20 250.17,382.53 272.30,371.83 294.41,361.07 316.50,350.28 338.57,339.44 360.62,328.55 382.64,317.62 404.65,306.65 426.63,295.64 448.59,284.58 470.53,273.48 492.45,262.33 514.34,251.15 536.22,239.92 558.07,228.64 579.90,217.33 601.71,205.97 623.49,194.57 645.26,183.13 667.00,171.65 688.72,160.12 710.42,148.55 732.09,136.94 753.74,125.29 775.38,113.60 796.98,101.87 818.57,90.09" fill="none" stroke="#94a3b8" stroke-width="1.2" stroke-linecap="round" stroke-linejoin="round" opacity="0.22"/>
<polyline points="161.42,424.91 183.64,414.40 205.84,403.84 228.02,393.23 250.18,382.58 272.32,371.89 294.43,361.14 316.53,350.36 338.60,339.52 360.65,328.64 382.67,317.72 404.68,306.76 426.66,295.75 448.62,284.69 470.56,273.59 492.48,262.45 514.37,251.26 536.24,240.03 558.09,228.76 579.92,217.44 601.72,206.08 623.50,194.67 645.26,183.22 667.00,171.73 688.71,160.20 710.40,148.62 732.07,137.00 753.72,125.33 775.34,113.63 796.94,101.88 818.52,90.09" fill="none" stroke="#94a3b8" stroke-width="1.2" stroke-linecap="round" stroke-linejoin="round" opacity="0.22"/>
<polyline points="161.42,424.91 183.65,414.43 205.87,403.89 228.06,393.31 250.23,382.69 272.38,372.01 294.51,361.29 316.61,350.53 338.69,339.71 360.74,328.85 382.78,317.94 404.79,306.98 426.77,295.98 448.74,284.93 470.68,273.83 492.59,262.69 514.48,251.50 536.35,240.26 558.20,228.98 580.02,217.65 601.82,206.28 623.59,194.86 645.34,183.39 667.07,171.89 688.77,160.33 710.45,148.73 732.10,137.09 753.74,125.41 775.35,113.68 796.93,101.90 818.49,90.09" fill="none" stroke="#94a3b8" stroke-width="1.2" stroke-linecap="round" stroke-linejoin="round" opacity="0.22"/>
<polyline points="161.42,424.91 183.65,414.40 205.85,403.85 228.04,393.25 250.20,382.61 272.34,371.92 294.46,361.18 316.56,350.40 338.63,339.58 360.68,328.70 382.71,317.79 404.72,306.82 426.71,295.82 448.67,284.76 470.61,273.67 492.53,262.52 514.42,251.33 536.29,240.10 558.14,228.82 579.97,217.50 601.77,206.14 623.55,194.73 645.31,183.27 667.04,171.78 688.75,160.24 710.44,148.65 732.11,137.03 753.75,125.36 775.37,113.64 796.96,101.89 818.54,90.09" fill="none" stroke="#94a3b8" stroke-width="1.2" stroke-linecap="round" stroke-linejoin="round" opacity="0.22"/>
<polyline points="161.42,424.91 183.63,414.37 205.82,403.78 227.99,393.15 250.14,382.48 272.27,371.76 294.38,361.00 316.46,350.19 338.52,339.34 360.57,328.45 382.59,317.51 404.59,306.54 426.57,295.52 448.53,284.45 470.47,273.35 492.39,262.21 514.28,251.02 536.16,239.79 558.01,228.52 579.84,217.21 601.66,205.86 623.45,194.47 645.22,183.04 666.96,171.56 688.69,160.05 710.39,148.49 732.08,136.89 753.74,125.26 775.37,113.58 796.99,101.85 818.58,90.09" fill="none" stroke="#94a3b8" stroke-width="1.2" stroke-linecap="round" stroke-linejoin="round" opacity="0.22"/>
<polyline points="161.42,424.91 183.64,414.39 205.84,403.82 228.02,393.20 250.17,382.54 272.31,371.84 294.42,361.09 316.51,350.30 338.58,339.46 360.63,328.58 382.66,317.65 404.66,306.68 426.65,295.67 448.61,284.61 470.55,273.51 492.47,262.37 514.36,251.18 536.24,239.95 558.09,228.68 579.92,217.36 601.72,206.00 623.51,194.60 645.27,183.16 667.02,171.67 688.73,160.15 710.43,148.58 732.10,136.96 753.76,125.31 775.38,113.61 796.99,101.87 818.57,90.09" fill="none" stroke="#94a3b8" stroke-width="1.2" stroke-linecap="round" stroke-linejoin="round" opacity="0.22"/>
<polyline points="161.42,424.91 183.65,414.42 205.86,403.88 228.05,393.29 250.22,382.66 272.37,371.98 294.49,361.25 316.59,350.48 338.67,339.66 360.72,328.79 382.75,317.88 404.76,306.92 426.75,295.92 448.71,284.87 470.65,273.77 492.57,262.63 514.46,251.44 536.33,240.20 558.18,228.92 580.00,217.60 601.80,206.23 623.58,194.81 645.33,183.35 667.06,171.85 688.77,160.30 710.45,148.71 732.11,137.07 753.75,125.39 775.36,113.66 796.95,101.90 818.52,90.09" fill="none" stroke="#94a3b8" stroke-width="1.2" stroke-linecap="round" stroke-linejoin="round" opacity="0.22"/>
<polyline points="161.42,424.91 183.65,414.41 205.85,403.86 228.04,393.27 250.20,382.62 272.34,371.94 294.46,361.20 316.55,350.42 338.63,339.59 360.68,328.72 382.71,317.80 404.71,306.84 426.70,295.83 448.66,284.78 470.60,273.68 492.51,262.53 514.40,251.35 536.27,240.11 558.12,228.83 579.95,217.51 601.75,206.15 623.53,194.74 645.28,183.28 667.01,171.78 688.72,160.24 710.41,148.66 732.07,137.03 753.71,125.36 775.33,113.65 796.92,101.89 818.49,90.09" fill="none" stroke="#94a3b8" stroke-width="1.2" stroke-linecap="round" stroke-linejoin="round" opacity="0.22"/>
<polyline points="161.42,424.91 183.64,414.40 205.84,403.83 228.02,393.23 250.18,382.57 272.32,371.88 294.43,361.13 316.53,350.34 338.60,339.51 360.65,328.63 382.67,317.71 404.68,306.74 426.66,295.73 448.62,284.68 470.56,273.58 492.48,262.43 514.37,251.25 536.25,240.02 558.10,228.74 579.92,217.42 601.73,206.06 623.51,194.66 645.27,183.21 667.01,171.72 688.72,160.19 710.41,148.61 732.08,136.99 753.73,125.33 775.35,113.62 796.95,101.88 818.53,90.09" fill="none" stroke="#94a3b8" stroke-width="1.2" stroke-linecap="round" stroke-linejoin="round" opacity="0.22"/>
<polyline points="161.42,424.91 183.64,414.39 205.84,403.83 228.03,393.22 250.18,382.57 272.32,371.87 294.44,361.13 316.53,350.34 338.61,339.51 360.66,328.63 382.69,317.71 404.69,306.74 426.68,295.73 448.64,284.68 470.58,273.58 492.50,262.43 514.40,251.24 536.27,240.01 558.12,228.74 579.95,217.42 601.76,206.06 623.54,194.65 645.30,183.20 667.04,171.71 688.76,160.18 710.45,148.60 732.12,136.98 753.77,125.32 775.39,113.62 797.00,101.87 818.58,90.09" fill="none" stroke="#94a3b8" stroke-width="1.2" stroke-linecap="round" stroke-linejoin="round" opacity="0.22"/>
<polyline points="161.42,424.91 183.64,414.38 205.83,403.81 228.01,393.19 250.16,382.53 272.30,371.82 294.41,361.07 316.50,350.27 338.57,339.43 360.62,328.54 382.64,317.62 404.65,306.64 426.63,295.63 448.59,284.57 470.53,273.47 492.45,262.33 514.34,251.14 536.22,239.91 558.07,228.64 579.90,217.33 601.71,205.97 623.50,194.57 645.26,183.13 667.00,171.65 688.73,160.12 710.42,148.56 732.10,136.95 753.75,125.30 775.38,113.60 796.99,101.87 818.58,90.09" fill="none" stroke="#94a3b8" stroke-width="1.2" stroke-linecap="round" stroke-linejoin="round" opacity="0.22"/>
<polyline points="161.42,424.91 183.64,414.39 205.84,403.83 228.02,393.22 250.18,382.57 272.31,371.87 294.43,361.13 316.52,350.34 338.59,339.50 360.64,328.62 382.66,317.70 404.67,306.73 426.65,295.71 448.61,284.66 470.55,273.56 492.46,262.41 514.36,251.22 536.23,239.99 558.08,228.72 579.90,217.40 601.71,206.04 623.49,194.64 645.25,183.19 666.99,171.70 688.71,160.17 710.40,148.60 732.07,136.98 753.72,125.32 775.34,113.62 796.94,101.88 818.52,90.09" fill="none" stroke="#94a3b8" stroke-width="1.2" stroke-linecap="round" stroke-linejoin="round" opacity="0.22"/>
<polyline points="161.42,424.91 183.65,414.42 205.87,403.89 228.06,393.31 250.23,382.68 272.38,372.01 294.50,361.29 316.60,350.52 338.68,339.70 360.74,328.84 382.77,317.93 404.78,306.97 426.77,295.97 448.73,284.92 470.67,273.82 492.58,262.68 514.48,251.49 536.35,240.26 558.19,228.97 580.01,217.65 601.81,206.27 623.59,194.86 645.34,183.39 667.07,171.88 688.77,160.33 710.45,148.73 732.10,137.09 753.74,125.41 775.35,113.68 796.93,101.90 818.49,90.09" fill="none" stroke="#94a3b8" stroke-width="1.2" stroke-linecap="round" stroke-linejoin="round" opacity="0.22"/>
<polyline points="161.42,424.91 183.65,414.41 205.86,403.86 228.04,393.27 250.21,382.63 272.35,371.95 294.47,361.22 316.57,350.44 338.65,339.62 360.70,328.75 382.73,317.83 404.74,306.87 426.73,295.86 448.69,284.81 470.63,273.71 492.55,262.57 514.44,251.38 536.31,240.15 558.16,228.87 579.98,217.54 601.78,206.17 623.56,194.76 645.32,183.31 667.05,171.80 688.76,160.26 710.44,148.67 732.11,137.04 753.75,125.37 775.36,113.65 796.96,101.89 818.53,90.09" fill="none" stroke="#94a3b8" stroke-width="1.2" stroke-linecap="round" stroke-linejoin="round" opacity="0.22"/>
<polyline points="161.42,424.91 183.63,414.37 205.82,403.79 227.99,393.16 250.14,382.48 272.27,371.77 294.38,361.01 316.46,350.20 338.53,339.35 360.57,328.46 382.60,317.53 404.60,306.55 426.58,295.54 448.54,284.47 470.48,273.37 492.39,262.23 514.29,251.04 536.17,239.81 558.02,228.54 579.85,217.23 601.66,205.88 623.45,194.49 645.22,183.05 666.97,171.58 688.69,160.06 710.40,148.50 732.08,136.90 753.74,125.26 775.37,113.58 796.99,101.85 818.58,90.09" fill="none" stroke="#94a3b8" stroke-width="1.2" stroke-linecap="round" stroke-linejoin="round" opacity="0.22"/>
<polyline points="161.42,424.91 183.64,414.38 205.83,403.81 228.01,393.19 250.16,382.53 272.30,371.82 294.41,361.06 316.50,350.27 338.57,339.43 360.62,328.54 382.64,317.62 404.65,306.65 426.63,295.63 448.59,284.57 470.53,273.47 492.45,262.33 514.35,251.14 536.22,239.91 558.07,228.64 579.90,217.33 601.71,205.97 623.50,194.57 645.26,183.13 667.01,171.65 688.73,160.12 710.42,148.55 732.10,136.94 753.75,125.29 775.38,113.60 796.99,101.87 818.58,90.09" fill="none" stroke="#94a3b8" stroke-width="1.2" stroke-linecap="round" stroke-linejoin="round" opacity="0.22"/>
<polyline points="161.42,424.91 183.65,414.42 205.86,403.87 228.05,393.28 250.22,382.65 272.36,371.97 294.48,361.24 316.58,350.47 338.66,339.65 360.72,328.78 382.75,317.87 404.76,306.91 426.74,295.90 448.71,284.85 470.65,273.75 492.56,262.61 514.46,251.42 536.33,240.18 558.18,228.90 580.00,217.58 601.80,206.21 623.58,194.79 645.33,183.33 667.06,171.83 688.77,160.28 710.45,148.69 732.11,137.06 753.75,125.38 775.37,113.66 796.96,101.89 818.53,90.09" fill="none" stroke="#94a3b8" stroke-width="1.2" stroke-linecap="round" stroke-linejoin="round" opacity="0.22"/>
<polyline points="161.42,424.91 183.65,414.41 205.85,403.86 228.04,393.27 250.20,382.63 272.34,371.94 294.46,361.21 316.56,350.43 338.63,339.60 360.68,328.73 382.71,317.81 404.72,306.85 426.70,295.84 448.66,284.79 470.60,273.69 492.52,262.55 514.41,251.36 536.28,240.13 558.13,228.85 579.95,217.53 601.75,206.16 623.53,194.75 645.29,183.30 667.02,171.80 688.73,160.26 710.41,148.67 732.08,137.04 753.72,125.37 775.33,113.65 796.92,101.89 818.49,90.09" fill="none" stroke="#94a3b8" stroke-width="1.2" stroke-linecap="round" stroke-linejoin="round" opacity="0.22"/>
<polyline points="161.42,424.91 183.64,414.40 205.85,403.84 228.03,393.24 250.19,382.59 272.32,371.89 294.44,361.15 316.53,350.36 338.60,339.53 360.65,328.65 382.68,317.73 404.68,306.76 426.67,295.75 448.63,284.69 470.57,273.59 492.48,262.45 514.38,251.26 536.25,240.03 558.09,228.75 579.92,217.43 601.73,206.07 623.51,194.67 645.27,183.22 667.00,171.73 688.72,160.19 710.41,148.61 732.08,136.99 753.72,125.33 775.35,113.63 796.95,101.88 818.52,90.09" fill="none" stroke="#94a3b8" stroke-width="1.2" stroke-linecap="round" stroke-linejoin="round" opacity="0.22"/>
<polyline points="161.42,424.91 183.64,414.39 205.84,403.83 228.02,393.22 250.18,382.57 272.32,371.87 294.43,361.13 316.52,350.34 338.59,339.50 360.64,328.62 382.67,317.70 404.68,306.73 426.66,295.72 448.62,284.66 470.56,273.56 492.48,262.42 514.37,251.23 536.24,240.00 558.09,228.73 579.92,217.41 601.73,206.05 623.51,194.65 645.27,183.20 667.01,171.71 688.72,160.18 710.42,148.60 732.09,136.98 753.73,125.32 775.36,113.62 796.96,101.88 818.54,90.09" fill="none" stroke="#111827" stroke-width="2.2" stroke-linecap="round" stroke-linejoin="round" opacity="0.85" stroke-dasharray="7 5"/>
<polyline points="161.42,424.91 183.65,414.43 205.87,403.89 228.06,393.31 250.23,382.69 272.38,372.01 294.51,361.29 316.61,350.53 338.69,339.71 360.74,328.85 382.78,317.94 404.79,306.98 426.77,295.98 448.74,284.93 470.68,273.83 492.59,262.69 514.48,251.50 536.35,240.26 558.20,228.98 580.02,217.65 601.82,206.28 623.59,194.86 645.34,183.39 667.07,171.89 688.77,160.33 710.45,148.73 732.10,137.09 753.74,125.41 775.35,113.68 796.93,101.90 818.49,90.09" fill="none" stroke="#059669" stroke-width="3.2" stroke-linecap="round" stroke-linejoin="round" opacity="1.0"/>
<text x="45" y="520" font-family="Arial, sans-serif" font-size="13" fill="#334155" font-weight="400" text-anchor="start">max-sag frame #00004; sag range 0.336 m</text>
</svg>
