<svg xmlns="http://www.w3.org/2000/svg" width="1120" height="720" viewBox="0 0 1120 720">
<rect width="100%" height="100%" fill="#f8fafc"/>
<text x="40" y="44" font-family="Arial, sans-serif" font-size="24" fill="#111827" font-weight="700" text-anchor="start">Sutong 2008: static vs max-sag, displacement amplified x10</text>
<text x="40" y="70" font-family="Arial, sans-serif" font-size="13" fill="#475569" font-weight="400" text-anchor="start">Dashed black = static; colored = max-sag frame with displacement from static multiplied by 10. Use actual-scale trail files for unamplified view.</text>
<rect x="40" y="96" width="1030" height="520" fill="#ffffff" stroke="#cbd5e1"/>
<polyline points="514.39,522.22 531.23,511.35 548.05,500.45 564.86,489.54 581.65,478.60 598.43,467.63 615.19,456.64 631.94,445.63 648.67,434.60 665.38,423.54 682.08,412.46 698.76,401.35 715.43,390.22 732.09,379.07 748.72,367.90 765.35,356.70 781.95,345.48 798.54,334.23 815.12,322.97 831.68,311.68 848.23,300.37 864.76,289.03 881.27,277.68 897.77,266.30 914.25,254.90 930.72,243.47 947.18,232.03 963.61,220.56 980.03,209.06 996.44,197.55 1012.83,186.01" fill="none" stroke="#0f172a" stroke-width="1.7" stroke-linecap="round" stroke-linejoin="round" opacity="0.45" stroke-dasharray="6 5"/>
<polyline points="284.94,522.22 309.56,510.57 334.15,498.87 358.72,487.12 383.27,475.32 407.79,463.47 432.28,451.56 456.76,439.61 481.20,427.61 505.63,415.56 530.03,403.46 554.40,391.31 578.75,379.11 603.08,366.87 627.38,354.57 651.65,342.23 675.91,329.83 700.13,317.39 724.34,304.91 748.52,292.37 772.67,279.79 796.80,267.15 820.90,254.48 844.98,241.75 869.04,228.97 893.06,216.15 917.07,203.28 941.05,190.37 965.00,177.40 988.93,164.40 1012.83,151.34" fill="none" stroke="#0f172a" stroke-width="1.7" stroke-linecap="round" stroke-linejoin="round" opacity="0.45" stroke-dasharray="6 5"/>
<polyline points="107.17,522.22 137.79,510.46 168.39,498.63 198.95,486.73 229.49,474.75 260.00,462.70 290.47,450.57 320.92,438.37 351.34,426.09 381.73,413.74 412.09,401.32 442.42,388.82 472.71,376.25 502.98,363.61 533.22,350.89 563.43,338.11 593.61,325.25 623.75,312.32 653.87,299.32 683.95,286.24 714.01,273.10 744.03,259.89 774.03,246.60 803.99,233.24 833.92,219.82 863.82,206.32 893.68,192.75 923.52,179.12 953.32,165.41 983.09,151.63 1012.83,137.78" fill="none" stroke="#0f172a" stroke-width="1.7" stroke-linecap="round" stroke-linejoin="round" opacity="0.45" stroke-dasharray="6 5"/>
<polyline points="514.39,522.22 531.32,511.49 548.21,500.74 565.09,489.96 581.96,479.14 598.79,468.30 615.64,457.42 632.42,446.51 649.21,435.57 665.96,424.59 682.69,413.57 699.39,402.52 716.08,391.44 732.75,380.31 749.37,369.16 765.99,357.96 782.57,346.73 799.14,335.46 815.66,324.17 832.19,312.83 848.68,301.45 865.14,290.04 881.59,278.61 898.01,267.13 914.42,255.63 930.80,244.12 947.16,232.55 963.50,220.97 979.82,209.33 996.11,197.68 1012.39,186.01" fill="none" stroke="#2563eb" stroke-width="3.0" stroke-linecap="round" stroke-linejoin="round" opacity="0.95"/>
<text x="790" y="115" font-family="Arial, sans-serif" font-size="15" fill="#2563eb" font-weight="700" text-anchor="start">C_334m: actual sag range 0.122 m</text>
<polyline points="284.94,522.22 309.70,510.91 334.44,499.54 359.15,488.11 383.84,476.61 408.49,465.05 433.09,453.41 457.67,441.70 482.23,429.92 506.74,418.06 531.19,406.12 555.62,394.11 580.03,382.01 604.37,369.83 628.67,357.57 652.93,345.23 677.17,332.82 701.36,320.31 725.49,307.73 749.59,295.07 773.66,282.34 797.68,269.51 821.68,256.63 845.62,243.71 869.53,230.67 893.41,217.59 917.26,204.47 941.08,191.27 964.86,178.03 988.61,164.70 1012.33,151.34" fill="none" stroke="#059669" stroke-width="3.0" stroke-linecap="round" stroke-linejoin="round" opacity="0.95"/>
<text x="790" y="143" font-family="Arial, sans-serif" font-size="15" fill="#059669" font-weight="700" text-anchor="start">C_454m: actual sag range 0.336 m</text>
<polyline points="107.17,522.22 138.03,511.09 168.86,499.88 199.65,488.59 230.41,477.19 261.11,465.68 291.79,454.07 322.41,442.34 353.01,430.49 383.53,418.52 414.03,406.42 444.45,394.19 474.82,381.83 505.14,369.33 535.41,356.69 565.61,343.92 595.75,331.02 625.86,317.97 655.88,304.79 685.86,291.48 715.77,278.05 745.64,264.47 775.45,250.79 805.21,237.02 834.93,223.11 864.60,209.13 894.22,195.04 923.80,180.86 953.34,166.58 982.83,152.23 1012.29,137.78" fill="none" stroke="#dc2626" stroke-width="3.0" stroke-linecap="round" stroke-linejoin="round" opacity="0.95"/>
<text x="790" y="171" font-family="Arial, sans-serif" font-size="15" fill="#dc2626" font-weight="700" text-anchor="start">C_547m: actual sag range 0.612 m</text>
<text x="55" y="665" font-family="Arial, sans-serif" font-size="13" fill="#475569" font-weight="400" text-anchor="start">This figure intentionally exaggerates only the dynamic displacement so the oscillation is visible at bridge scale.</text>
</svg>
