<svg xmlns="http://www.w3.org/2000/svg" width="1120" height="720" viewBox="0 0 1120 720">
<rect width="100%" height="100%" fill="#f8fafc"/>
<text x="40" y="44" font-family="Arial, sans-serif" font-size="24" fill="#111827" font-weight="700" text-anchor="start">Sutong 2008: neutral / positive / negative extrema, displacement x10</text>
<text x="40" y="70" font-family="Arial, sans-serif" font-size="13" fill="#475569" font-weight="400" text-anchor="start">Each cable: dotted = neutral static shape; red = positive extreme; blue = negative extreme. Displacement from neutral is amplified 10x.</text>
<rect x="40" y="96" width="1030" height="520" fill="#ffffff" stroke="#cbd5e1"/>
<polyline points="515.03,518.56 531.55,507.90 548.05,497.21 564.54,486.50 581.01,475.77 597.47,465.01 613.91,454.23 630.34,443.43 646.75,432.61 663.15,421.76 679.53,410.89 695.89,399.99 712.24,389.08 728.58,378.14 744.90,367.17 761.21,356.19 777.50,345.18 793.77,334.15 810.04,323.10 826.28,312.03 842.51,300.93 858.73,289.81 874.93,278.67 891.11,267.51 907.28,256.33 923.44,245.12 939.58,233.89 955.70,222.64 971.81,211.37 987.91,200.07 1003.98,188.75" fill="none" stroke="#111827" stroke-width="1.6" stroke-linecap="round" stroke-linejoin="round" opacity="0.55" stroke-dasharray="4 6"/>
<polyline points="289.95,518.56 314.10,507.13 338.22,495.65 362.32,484.13 386.40,472.55 410.45,460.93 434.48,449.25 458.49,437.53 482.47,425.75 506.43,413.93 530.36,402.06 554.28,390.14 578.16,378.18 602.03,366.16 625.86,354.10 649.68,341.99 673.47,329.84 697.24,317.63 720.98,305.38 744.70,293.09 768.39,280.74 792.06,268.35 815.71,255.91 839.33,243.43 862.92,230.90 886.50,218.32 910.04,205.69 933.57,193.02 957.06,180.31 980.54,167.55 1003.98,154.74" fill="none" stroke="#111827" stroke-width="1.6" stroke-linecap="round" stroke-linejoin="round" opacity="0.55" stroke-dasharray="4 6"/>
<polyline points="115.56,518.56 145.60,507.03 175.61,495.43 205.59,483.75 235.55,472.00 265.47,460.17 295.37,448.28 325.24,436.31 355.08,424.26 384.89,412.15 414.67,399.96 444.42,387.70 474.14,375.37 503.84,362.97 533.50,350.50 563.13,337.95 592.74,325.34 622.31,312.65 651.85,299.90 681.37,287.08 710.85,274.18 740.30,261.22 769.72,248.19 799.11,235.08 828.48,221.91 857.80,208.67 887.10,195.36 916.37,181.99 945.61,168.54 974.81,155.03 1003.98,141.44" fill="none" stroke="#111827" stroke-width="1.6" stroke-linecap="round" stroke-linejoin="round" opacity="0.55" stroke-dasharray="4 6"/>
<polyline points="515.03,518.56 531.51,507.82 547.98,497.07 564.43,486.30 580.87,475.50 597.29,464.69 613.73,453.87 630.13,443.02 646.54,432.16 662.90,421.27 679.28,410.38 695.65,399.47 712.00,388.54 728.33,377.59 744.66,366.63 760.98,355.64 777.27,344.64 793.58,333.62 809.84,322.59 826.11,311.53 842.36,300.44 858.61,289.35 874.84,278.25 891.06,267.12 907.26,255.97 923.46,244.83 939.64,233.64 955.81,222.46 971.97,211.22 988.12,200.00 1004.25,188.75" fill="none" stroke="#dc2626" stroke-width="2.4" stroke-linecap="round" stroke-linejoin="round" opacity="0.75"/>
<polyline points="515.03,518.56 531.64,508.04 548.21,497.49 564.77,486.91 581.31,476.31 597.82,465.66 614.35,455.00 630.81,444.30 647.28,433.56 663.71,422.79 680.13,411.98 696.51,401.14 712.88,390.27 729.23,379.36 745.54,368.41 761.84,357.43 778.10,346.41 794.36,335.35 810.57,324.28 826.78,313.16 842.95,301.99 859.11,290.80 875.24,279.59 891.35,268.32 907.44,257.05 923.51,245.75 939.56,234.40 955.59,223.04 971.60,211.63 987.58,200.19 1003.55,188.75" fill="none" stroke="#2563eb" stroke-width="2.4" stroke-linecap="round" stroke-linejoin="round" opacity="0.75"/>
<text x="775" y="115" font-family="Arial, sans-serif" font-size="15" fill="#334155" font-weight="700" text-anchor="start">C_334m: -0.078 to +0.033 m</text>
<polyline points="289.95,518.56 313.97,506.86 337.99,495.13 361.99,483.35 385.96,471.54 409.92,459.70 433.87,447.82 457.78,435.92 481.71,423.99 505.62,412.02 529.48,400.03 553.36,388.01 577.21,375.96 601.05,363.88 624.89,351.78 648.71,339.66 672.52,327.52 696.32,315.36 720.10,303.14 743.87,290.95 767.63,278.71 791.39,266.44 815.12,254.15 838.85,241.86 862.56,229.50 886.25,217.12 909.93,204.72 933.58,192.28 957.22,179.81 980.84,167.28 1004.44,154.74" fill="none" stroke="#dc2626" stroke-width="2.4" stroke-linecap="round" stroke-linejoin="round" opacity="0.75"/>
<polyline points="289.95,518.56 314.24,507.46 338.50,496.31 362.75,485.10 386.96,473.82 411.14,462.48 435.28,451.06 459.39,439.58 483.48,428.02 507.52,416.38 531.51,404.67 555.48,392.89 579.42,381.02 603.30,369.07 627.13,357.05 650.93,344.94 674.71,332.77 698.44,320.49 722.11,308.15 745.76,295.73 769.36,283.25 792.93,270.66 816.47,258.03 839.95,245.35 863.41,232.56 886.84,219.73 910.23,206.86 933.59,193.91 956.93,180.93 980.23,167.85 1003.49,154.74" fill="none" stroke="#2563eb" stroke-width="2.4" stroke-linecap="round" stroke-linejoin="round" opacity="0.75"/>
<text x="775" y="143" font-family="Arial, sans-serif" font-size="15" fill="#334155" font-weight="700" text-anchor="start">C_454m: -0.181 to +0.143 m</text>
<polyline points="115.56,518.56 145.42,506.56 175.27,494.51 205.10,482.39 234.89,470.22 264.66,458.00 294.42,445.73 324.16,433.42 353.88,421.07 383.58,408.69 413.28,396.26 442.96,383.80 472.61,371.32 502.27,358.81 531.93,346.28 561.54,333.72 591.17,321.14 620.79,308.51 650.37,295.86 679.97,283.21 709.54,270.51 739.10,257.76 768.65,245.01 798.20,232.23 827.72,219.39 857.23,206.54 886.72,193.60 916.18,180.66 945.63,167.64 975.05,154.57 1004.44,141.44" fill="none" stroke="#dc2626" stroke-width="2.4" stroke-linecap="round" stroke-linejoin="round" opacity="0.75"/>
<polyline points="115.56,518.56 145.83,507.65 176.07,496.65 206.28,485.57 236.45,474.39 266.57,463.10 296.66,451.71 326.71,440.20 356.72,428.58 386.65,416.84 416.58,404.97 446.42,392.97 476.21,380.84 505.95,368.58 535.65,356.19 565.27,343.65 594.84,331.00 624.37,318.20 653.83,305.27 683.24,292.21 712.58,279.04 741.87,265.72 771.12,252.30 800.31,238.79 829.47,225.14 858.57,211.43 887.63,197.61 916.65,183.70 945.62,169.69 974.56,155.61 1003.45,141.44" fill="none" stroke="#2563eb" stroke-width="2.4" stroke-linecap="round" stroke-linejoin="round" opacity="0.75"/>
<text x="775" y="171" font-family="Arial, sans-serif" font-size="15" fill="#334155" font-weight="700" text-anchor="start">C_547m: -0.345 to +0.256 m</text>
<text x="55" y="666" font-family="Arial, sans-serif" font-size="13" fill="#475569" font-weight="400" text-anchor="start">Use actual-scale pos_neg_neutral SVGs to inspect unamplified geometry.</text>
</svg>
