<svg xmlns="http://www.w3.org/2000/svg" width="980" height="560" viewBox="0 0 980 560">
<rect width="100%" height="100%" fill="#f8fafc"/>
<text x="35" y="42" font-family="Arial, sans-serif" font-size="23" fill="#111827" font-weight="700" text-anchor="start">Sutong C_334m: displacement amplified x10</text>
<text x="35" y="68" font-family="Arial, sans-serif" font-size="13" fill="#475569" font-weight="400" text-anchor="start">Geometry base is unchanged; only frame-to-static displacement is multiplied by 10 for visibility.</text>
<rect x="35" y="88" width="910" height="390" fill="#ffffff" stroke="#cbd5e1"/>
<polyline points="241.60,424.91 258.37,414.09 275.12,403.24 291.86,392.37 308.58,381.47 325.29,370.55 341.98,359.61 358.66,348.64 375.32,337.65 391.97,326.64 408.60,315.60 425.21,304.54 441.81,293.46 458.40,282.35 474.97,271.22 491.52,260.07 508.06,248.90 524.58,237.70 541.09,226.48 557.58,215.24 574.06,203.97 590.52,192.69 606.97,181.38 623.40,170.04 639.82,158.69 656.22,147.31 672.60,135.91 688.97,124.49 705.33,113.05 721.67,101.58 737.99,90.09" fill="none" stroke="#111827" stroke-width="2.2" stroke-linecap="round" stroke-linejoin="round" opacity="0.85" stroke-dasharray="7 5"/>
<polyline points="241.60,424.91 258.37,414.09 275.12,403.24 291.86,392.37 308.58,381.47 325.29,370.55 341.98,359.61 358.66,348.64 375.32,337.65 391.97,326.64 408.60,315.60 425.21,304.54 441.81,293.46 458.40,282.35 474.97,271.22 491.52,260.07 508.06,248.90 524.58,237.70 541.09,226.48 557.58,215.24 574.06,203.97 590.52,192.69 606.97,181.38 623.40,170.04 639.82,158.69 656.22,147.31 672.60,135.91 688.97,124.49 705.33,113.05 721.67,101.58 737.99,90.09" fill="none" stroke="#94a3b8" stroke-width="1.0" stroke-linecap="round" stroke-linejoin="round" opacity="0.18"/>
<polyline points="241.60,424.91 258.37,414.07 275.12,403.20 291.86,392.32 308.60,381.42 325.31,370.49 342.03,359.55 358.71,348.58 375.39,337.59 392.04,326.59 408.70,315.56 425.34,304.52 441.97,293.44 458.56,282.34 475.15,271.22 491.74,260.07 508.28,248.90 524.82,237.70 541.33,226.50 557.85,215.26 574.33,203.97 590.81,192.69 607.27,181.38 623.71,170.03 640.14,158.67 656.55,147.31 672.95,135.89 689.33,124.47 705.70,113.03 722.06,101.56 738.40,90.09" fill="none" stroke="#94a3b8" stroke-width="1.0" stroke-linecap="round" stroke-linejoin="round" opacity="0.18"/>
<polyline points="241.60,424.91 258.33,414.01 275.05,403.10 291.75,392.16 308.44,381.20 325.11,370.23 341.80,359.23 358.44,348.22 375.10,337.20 391.72,326.15 408.35,315.08 424.96,304.01 441.56,292.91 458.15,281.80 474.72,270.67 491.29,259.52 507.83,248.35 524.39,237.16 540.90,225.96 557.41,214.74 573.91,203.47 590.40,192.22 606.88,180.95 623.34,169.65 639.80,158.33 656.24,147.02 672.67,135.66 689.09,124.31 705.49,112.90 721.88,101.51 738.26,90.09" fill="none" stroke="#94a3b8" stroke-width="1.0" stroke-linecap="round" stroke-linejoin="round" opacity="0.18"/>
<polyline points="241.60,424.91 258.42,414.18 275.23,403.42 292.02,392.64 308.78,381.82 325.52,370.98 342.27,360.11 358.98,349.21 375.68,338.28 392.34,327.32 409.01,316.33 425.64,305.31 442.26,294.25 458.84,283.16 475.40,272.04 491.97,260.89 508.47,249.71 524.99,238.49 541.47,227.25 557.94,215.97 574.37,204.65 590.79,193.30 607.19,181.95 623.57,170.55 639.94,159.14 656.29,147.70 672.62,136.22 688.93,124.74 705.22,113.21 721.50,101.65 737.75,90.09" fill="none" stroke="#94a3b8" stroke-width="1.0" stroke-linecap="round" stroke-linejoin="round" opacity="0.18"/>
<polyline points="241.60,424.91 258.44,414.21 275.24,403.47 292.04,392.71 308.81,381.92 325.58,371.10 342.32,360.24 359.04,349.36 375.73,338.44 392.40,327.49 409.06,316.50 425.68,305.49 442.31,294.44 458.90,283.36 475.45,272.24 492.00,261.10 508.51,249.91 525.01,238.69 541.49,227.45 557.94,216.17 574.37,204.85 590.78,193.49 607.16,182.13 623.53,170.71 639.88,159.28 656.21,147.83 672.51,136.32 688.81,124.81 705.08,113.26 721.33,101.69 737.56,90.09" fill="none" stroke="#94a3b8" stroke-width="1.0" stroke-linecap="round" stroke-linejoin="round" opacity="0.18"/>
<polyline points="241.60,424.91 258.37,414.08 275.12,403.23 291.84,392.35 308.56,381.45 325.25,370.53 341.96,359.59 358.62,348.62 375.30,337.63 391.93,326.62 408.58,315.58 425.19,304.53 441.79,293.45 458.38,282.35 474.93,271.22 491.50,260.07 508.02,248.89 524.56,237.70 541.06,226.50 557.57,215.26 574.04,203.97 590.50,192.69 606.95,181.39 623.38,170.04 639.79,158.71 656.19,147.33 672.57,135.91 688.94,124.51 705.29,113.05 721.63,101.58 737.95,90.09" fill="none" stroke="#94a3b8" stroke-width="1.0" stroke-linecap="round" stroke-linejoin="round" opacity="0.18"/>
<polyline points="241.60,424.91 258.37,414.07 275.14,403.21 291.88,392.33 308.62,381.43 325.33,370.51 342.05,359.57 358.73,348.60 375.41,337.62 392.06,326.61 408.72,315.57 425.36,304.52 441.97,293.44 458.58,282.34 475.15,271.22 491.74,260.07 508.28,248.89 524.82,237.70 541.33,226.50 557.85,215.26 574.33,203.97 590.81,192.69 607.27,181.38 623.70,170.03 640.13,158.67 656.54,147.29 672.94,135.88 689.32,124.47 705.69,113.03 722.05,101.56 738.39,90.09" fill="none" stroke="#94a3b8" stroke-width="1.0" stroke-linecap="round" stroke-linejoin="round" opacity="0.18"/>
<polyline points="241.60,424.91 258.33,414.02 275.07,403.11 291.77,392.18 308.47,381.24 325.15,370.28 341.84,359.30 358.50,348.29 375.14,337.26 391.77,326.22 408.40,315.15 425.00,304.07 441.61,292.97 458.18,281.85 474.75,270.71 491.32,259.55 507.86,248.38 524.40,237.18 540.91,225.98 557.44,214.75 573.94,203.51 590.43,192.24 606.91,180.96 623.38,169.67 639.83,158.35 656.27,147.04 672.70,135.68 689.12,124.31 705.53,112.92 721.92,101.51 738.29,90.09" fill="none" stroke="#94a3b8" stroke-width="1.0" stroke-linecap="round" stroke-linejoin="round" opacity="0.18"/>
<polyline points="241.60,424.91 258.40,414.16 275.21,403.38 291.98,392.58 308.74,381.74 325.47,370.88 342.21,360.00 358.89,349.08 375.59,338.13 392.24,327.15 408.90,316.15 425.52,305.12 442.13,294.05 458.72,282.96 475.27,271.84 491.84,260.69 508.36,249.51 524.89,238.29 541.36,227.07 557.84,215.79 574.28,204.49 590.72,193.17 607.13,181.82 623.52,170.44 639.90,159.03 656.25,147.61 672.59,136.14 688.92,124.67 705.23,113.15 721.52,101.63 737.79,90.09" fill="none" stroke="#94a3b8" stroke-width="1.0" stroke-linecap="round" stroke-linejoin="round" opacity="0.18"/>
<polyline points="241.60,424.91 258.44,414.21 275.26,403.49 292.06,392.73 308.85,381.95 325.59,371.13 342.36,360.29 359.07,349.41 375.79,338.50 392.45,327.56 409.12,316.59 425.77,305.59 442.38,294.55 458.97,283.48 475.54,272.36 492.09,261.22 508.60,250.03 525.10,238.81 541.56,227.57 558.03,216.29 574.45,204.96 590.86,193.62 607.25,182.24 623.61,170.81 639.94,159.37 656.26,147.90 672.56,136.38 688.84,124.86 705.10,113.30 721.34,101.70 737.56,90.09" fill="none" stroke="#94a3b8" stroke-width="1.0" stroke-linecap="round" stroke-linejoin="round" opacity="0.18"/>
<polyline points="241.60,424.91 258.37,414.09 275.12,403.24 291.86,392.37 308.56,381.47 325.27,370.56 341.98,359.61 358.64,348.65 375.30,337.66 391.93,326.65 408.58,315.61 425.19,304.56 441.79,293.49 458.38,282.39 474.95,271.27 491.52,260.12 508.04,248.94 524.56,237.74 541.06,226.53 557.57,215.29 574.03,204.01 590.49,192.72 606.93,181.39 623.35,170.06 639.76,158.71 656.16,147.33 672.53,135.91 688.90,124.51 705.25,113.05 721.59,101.58 737.90,90.09" fill="none" stroke="#94a3b8" stroke-width="1.0" stroke-linecap="round" stroke-linejoin="round" opacity="0.18"/>
<polyline points="241.60,424.91 258.37,414.07 275.14,403.21 291.88,392.33 308.60,381.43 325.31,370.51 342.03,359.57 358.71,348.60 375.41,337.62 392.04,326.61 408.70,315.58 425.34,304.53 441.95,293.45 458.56,282.34 475.13,271.21 491.70,260.06 508.24,248.88 524.78,237.68 541.29,226.46 557.80,215.22 574.28,203.92 590.75,192.63 607.21,181.32 623.65,169.97 640.08,158.63 656.50,147.27 672.90,135.86 689.29,124.47 705.66,113.01 722.02,101.56 738.37,90.09" fill="none" stroke="#94a3b8" stroke-width="1.0" stroke-linecap="round" stroke-linejoin="round" opacity="0.18"/>
<polyline points="241.60,424.91 258.35,414.03 275.08,403.13 291.79,392.21 308.49,381.27 325.18,370.31 341.87,359.33 358.53,348.33 375.19,337.31 391.81,326.26 408.45,315.20 425.07,304.13 441.67,293.03 458.25,281.92 474.82,270.78 491.39,259.63 507.93,248.46 524.49,237.25 541.00,226.05 557.51,214.83 574.01,203.56 590.50,192.29 606.97,181.02 623.44,169.70 639.88,158.38 656.32,147.06 672.75,135.70 689.16,124.33 705.56,112.92 721.95,101.51 738.32,90.09" fill="none" stroke="#94a3b8" stroke-width="1.0" stroke-linecap="round" stroke-linejoin="round" opacity="0.18"/>
<polyline points="241.60,424.91 258.38,414.13 275.17,403.33 291.93,392.50 308.67,381.65 325.40,370.76 342.12,359.86 358.80,348.92 375.50,337.96 392.13,326.98 408.79,315.96 425.41,304.93 442.03,293.86 458.61,282.76 475.16,271.64 491.74,260.49 508.24,249.31 524.78,238.09 541.25,226.87 557.75,215.63 574.21,204.33 590.65,193.03 607.08,181.70 623.49,170.33 639.87,158.94 656.24,147.54 672.60,136.09 688.93,124.63 705.25,113.13 721.55,101.61 737.83,90.09" fill="none" stroke="#94a3b8" stroke-width="1.0" stroke-linecap="round" stroke-linejoin="round" opacity="0.18"/>
<polyline points="241.60,424.91 258.44,414.23 275.28,403.51 292.09,392.77 308.87,382.00 325.63,371.19 342.39,360.36 359.11,349.48 375.82,338.58 392.49,327.64 409.15,316.67 425.80,305.66 442.42,294.62 459.01,283.55 475.56,272.44 492.13,261.29 508.63,250.11 525.16,238.90 541.61,227.66 558.07,216.38 574.50,205.05 590.90,193.69 607.28,182.31 623.64,170.89 639.97,159.42 656.29,147.96 672.58,136.43 688.85,124.90 705.10,113.31 721.34,101.70 737.55,90.09" fill="none" stroke="#94a3b8" stroke-width="1.0" stroke-linecap="round" stroke-linejoin="round" opacity="0.18"/>
<polyline points="241.60,424.91 258.37,414.10 275.14,403.26 291.88,392.40 308.60,381.52 325.31,370.61 342.02,359.69 358.69,348.73 375.36,337.75 391.98,326.74 408.63,315.71 425.25,304.65 441.85,293.57 458.43,282.46 474.99,271.33 491.54,260.18 508.06,249.00 524.58,237.79 541.07,226.59 557.57,215.33 574.04,204.05 590.49,192.76 606.93,181.45 623.35,170.10 639.76,158.74 656.15,147.36 672.52,135.95 688.88,124.52 705.23,113.06 721.55,101.58 737.86,90.09" fill="none" stroke="#94a3b8" stroke-width="1.0" stroke-linecap="round" stroke-linejoin="round" opacity="0.18"/>
<polyline points="241.60,424.91 258.37,414.07 275.12,403.20 291.86,392.32 308.60,381.41 325.31,370.49 342.02,359.54 358.69,348.57 375.37,337.58 392.02,326.57 408.67,315.53 425.30,304.47 441.92,293.39 458.50,282.28 475.07,271.15 491.66,260.00 508.19,248.82 524.74,237.63 541.25,226.41 557.76,215.17 574.24,203.88 590.71,192.60 607.17,181.29 623.61,169.94 640.04,158.60 656.45,147.22 672.86,135.82 689.25,124.43 705.62,112.99 721.99,101.54 738.34,90.09" fill="none" stroke="#94a3b8" stroke-width="1.0" stroke-linecap="round" stroke-linejoin="round" opacity="0.18"/>
<polyline points="241.60,424.91 258.33,414.03 275.08,403.13 291.79,392.21 308.49,381.28 325.18,370.32 341.89,359.35 358.55,348.36 375.21,337.35 391.86,326.33 408.49,315.28 425.12,304.21 441.74,293.12 458.32,282.01 474.90,270.88 491.47,259.73 508.01,248.56 524.56,237.36 541.07,226.16 557.58,214.91 574.08,203.67 590.57,192.38 607.04,181.11 623.50,169.79 639.95,158.46 656.38,147.13 672.80,135.73 689.20,124.36 705.60,112.96 721.98,101.53 738.35,90.09" fill="none" stroke="#94a3b8" stroke-width="1.0" stroke-linecap="round" stroke-linejoin="round" opacity="0.18"/>
<polyline points="241.60,424.91 258.38,414.11 275.16,403.29 291.89,392.44 308.62,381.56 325.33,370.66 342.05,359.74 358.73,348.79 375.41,337.81 392.04,326.82 408.69,315.80 425.30,304.75 441.92,293.68 458.50,282.58 475.07,271.47 491.65,260.32 508.17,249.15 524.69,237.95 541.18,226.73 557.67,215.49 574.14,204.19 590.59,192.88 607.02,181.57 623.43,170.21 639.83,158.83 656.21,147.45 672.57,136.00 688.92,124.58 705.26,113.10 721.57,101.60 737.87,90.09" fill="none" stroke="#94a3b8" stroke-width="1.0" stroke-linecap="round" stroke-linejoin="round" opacity="0.18"/>
<polyline points="241.60,424.91 258.46,414.23 275.28,403.53 292.09,392.79 308.89,382.02 325.65,371.21 342.43,360.38 359.14,349.52 375.86,338.62 392.54,327.68 409.21,316.71 425.84,305.71 442.46,294.67 459.06,283.59 475.61,272.48 492.17,261.33 508.67,250.15 525.17,238.92 541.63,227.68 558.09,216.38 574.51,205.05 590.91,193.69 607.29,182.31 623.64,170.87 639.98,159.42 656.30,147.96 672.59,136.43 688.86,124.90 705.11,113.31 721.34,101.70 737.55,90.09" fill="none" stroke="#94a3b8" stroke-width="1.0" stroke-linecap="round" stroke-linejoin="round" opacity="0.18"/>
<polyline points="241.60,424.91 258.38,414.12 275.16,403.31 291.91,392.47 308.64,381.60 325.34,370.70 342.07,359.78 358.73,348.83 375.41,337.85 392.04,326.85 408.69,315.82 425.28,304.76 441.90,293.68 458.47,282.58 475.04,271.46 491.59,260.30 508.11,249.12 524.64,237.92 541.11,226.69 557.60,215.43 574.07,204.15 590.52,192.85 606.95,181.52 623.37,170.17 639.77,158.81 656.15,147.42 672.51,135.98 688.86,124.56 705.20,113.08 721.52,101.60 737.82,90.09" fill="none" stroke="#94a3b8" stroke-width="1.0" stroke-linecap="round" stroke-linejoin="round" opacity="0.18"/>
<polyline points="241.60,424.91 258.46,414.23 275.28,403.53 292.09,392.79 308.89,382.02 325.65,371.21 342.43,360.38 359.14,349.52 375.86,338.62 392.54,327.68 409.21,316.71 425.84,305.71 442.46,294.67 459.06,283.59 475.61,272.48 492.17,261.33 508.67,250.15 525.17,238.92 541.63,227.68 558.09,216.38 574.51,205.05 590.91,193.69 607.29,182.31 623.64,170.87 639.98,159.42 656.30,147.96 672.59,136.43 688.86,124.90 705.11,113.31 721.34,101.70 737.55,90.09" fill="none" stroke="#2563eb" stroke-width="3.2" stroke-linecap="round" stroke-linejoin="round" opacity="1.0"/>
<text x="45" y="520" font-family="Arial, sans-serif" font-size="13" fill="#334155" font-weight="400" text-anchor="start">actual sag range 0.122 m; drawn displacement range x10</text>
</svg>
