<svg xmlns="http://www.w3.org/2000/svg" width="980" height="560" viewBox="0 0 980 560">
<rect width="100%" height="100%" fill="#f8fafc"/>
<text x="35" y="42" font-family="Arial, sans-serif" font-size="23" fill="#111827" font-weight="700" text-anchor="start">Sutong C_547m: actual-scale motion trail</text>
<text x="35" y="68" font-family="Arial, sans-serif" font-size="13" fill="#475569" font-weight="400" text-anchor="start">Gray = all output frames, black dashed = static t=0, red/green/blue = max-sag frame. Equal x-z scale.</text>
<rect x="35" y="88" width="910" height="390" fill="#ffffff" stroke="#cbd5e1"/>
<polyline points="95.58,424.91 122.26,414.67 148.90,404.37 175.52,394.01 202.12,383.57 228.69,373.07 255.23,362.51 281.75,351.88 308.24,341.19 334.71,330.43 361.15,319.61 387.57,308.73 413.96,297.78 440.32,286.77 466.65,275.70 492.96,264.56 519.25,253.36 545.50,242.10 571.73,230.78 597.94,219.39 624.11,207.94 650.26,196.43 676.39,184.86 702.48,173.23 728.55,161.54 754.59,149.78 780.60,137.96 806.59,126.09 832.54,114.15 858.47,102.15 884.37,90.09" fill="none" stroke="#94a3b8" stroke-width="1.2" stroke-linecap="round" stroke-linejoin="round" opacity="0.22"/>
<polyline points="95.58,424.91 122.26,414.67 148.90,404.37 175.52,394.00 202.12,383.56 228.69,373.07 255.24,362.50 281.76,351.88 308.25,341.19 334.72,330.43 361.17,319.61 387.58,308.73 413.97,297.79 440.34,286.78 466.68,275.70 492.99,264.57 519.27,253.37 545.53,242.10 571.76,230.78 597.97,219.40 624.14,207.95 650.29,196.43 676.42,184.86 702.51,173.23 728.58,161.53 754.62,149.78 780.64,137.96 806.62,126.08 832.58,114.14 858.51,102.15 884.42,90.09" fill="none" stroke="#94a3b8" stroke-width="1.2" stroke-linecap="round" stroke-linejoin="round" opacity="0.22"/>
<polyline points="95.58,424.91 122.25,414.66 148.89,404.35 175.51,393.97 202.11,383.53 228.67,373.02 255.22,362.45 281.73,351.82 308.22,341.12 334.69,330.36 361.13,319.54 387.54,308.65 413.93,297.70 440.30,286.69 466.63,275.61 492.94,264.48 519.23,253.28 545.49,242.02 571.72,230.70 597.92,219.31 624.10,207.87 650.25,196.36 676.38,184.80 702.48,173.17 728.55,161.48 754.59,149.73 780.61,137.93 806.60,126.06 832.56,114.13 858.50,102.14 884.40,90.09" fill="none" stroke="#94a3b8" stroke-width="1.2" stroke-linecap="round" stroke-linejoin="round" opacity="0.22"/>
<polyline points="95.58,424.91 122.25,414.67 148.90,404.37 175.52,394.00 202.11,383.57 228.68,373.07 255.22,362.50 281.74,351.87 308.23,341.18 334.70,330.42 361.14,319.60 387.55,308.71 413.94,297.76 440.30,286.75 466.63,275.68 492.94,264.54 519.22,253.34 545.48,242.08 571.71,230.75 597.91,219.37 624.09,207.92 650.24,196.42 676.36,184.85 702.45,173.22 728.52,161.53 754.56,149.77 780.58,137.96 806.56,126.08 832.52,114.15 858.45,102.15 884.35,90.09" fill="none" stroke="#94a3b8" stroke-width="1.2" stroke-linecap="round" stroke-linejoin="round" opacity="0.22"/>
<polyline points="95.58,424.91 122.27,414.71 148.92,404.44 175.55,394.10 202.16,383.69 228.74,373.22 255.29,362.68 281.82,352.08 308.32,341.41 334.79,330.67 361.24,319.86 387.66,308.99 414.05,298.05 440.42,287.05 466.75,275.98 493.06,264.84 519.34,253.64 545.60,242.37 571.82,231.04 598.02,219.65 624.19,208.19 650.33,196.66 676.44,185.07 702.53,173.42 728.58,161.70 754.61,149.92 780.61,138.08 806.58,126.18 832.53,114.21 858.44,102.18 884.33,90.09" fill="none" stroke="#94a3b8" stroke-width="1.2" stroke-linecap="round" stroke-linejoin="round" opacity="0.22"/>
<polyline points="95.58,424.91 122.27,414.70 148.92,404.43 175.56,394.09 202.16,383.68 228.74,373.21 255.30,362.67 281.83,352.07 308.33,341.40 334.80,330.66 361.25,319.86 387.67,308.99 414.07,298.05 440.43,287.05 466.77,275.98 493.08,264.84 519.36,253.64 545.62,242.37 571.84,231.04 598.04,219.64 624.21,208.18 650.35,196.65 676.47,185.06 702.56,173.41 728.61,161.69 754.64,149.91 780.64,138.07 806.62,126.17 832.56,114.20 858.48,102.18 884.37,90.09" fill="none" stroke="#94a3b8" stroke-width="1.2" stroke-linecap="round" stroke-linejoin="round" opacity="0.22"/>
<polyline points="95.58,424.91 122.25,414.65 148.89,404.33 175.50,393.94 202.09,383.48 228.65,372.97 255.19,362.39 281.70,351.74 308.19,341.04 334.66,330.27 361.09,319.44 387.51,308.55 413.90,297.60 440.26,286.58 466.59,275.51 492.90,264.37 519.19,253.17 545.45,241.91 571.68,230.60 597.89,219.22 624.07,207.78 650.23,196.28 676.36,184.72 702.46,173.10 728.53,161.42 754.58,149.68 780.60,137.88 806.60,126.02 832.56,114.11 858.50,102.13 884.42,90.09" fill="none" stroke="#94a3b8" stroke-width="1.2" stroke-linecap="round" stroke-linejoin="round" opacity="0.22"/>
<polyline points="95.58,424.91 122.24,414.64 148.87,404.30 175.48,393.90 202.06,383.43 228.62,372.90 255.16,362.31 281.66,351.65 308.15,340.94 334.61,330.16 361.04,319.32 387.45,308.42 413.83,297.46 440.19,286.44 466.52,275.36 492.84,264.22 519.12,253.02 545.38,241.77 571.61,230.45 597.82,219.08 624.01,207.65 650.17,196.16 676.30,184.61 702.40,173.00 728.49,161.34 754.54,149.61 780.57,137.83 806.57,125.98 832.54,114.08 858.49,102.11 884.41,90.09" fill="none" stroke="#94a3b8" stroke-width="1.2" stroke-linecap="round" stroke-linejoin="round" opacity="0.22"/>
<polyline points="95.58,424.91 122.26,414.69 148.92,404.41 175.54,394.06 202.15,383.65 228.72,373.16 255.27,362.62 281.80,352.00 308.30,341.33 334.77,330.58 361.21,319.77 387.63,308.90 414.02,297.96 440.39,286.95 466.72,275.88 493.03,264.74 519.32,253.54 545.57,242.28 571.80,230.95 598.00,219.56 624.17,208.10 650.31,196.58 676.43,185.00 702.52,173.35 728.58,161.64 754.61,149.87 780.62,138.04 806.59,126.14 832.54,114.19 858.46,102.17 884.35,90.09" fill="none" stroke="#94a3b8" stroke-width="1.2" stroke-linecap="round" stroke-linejoin="round" opacity="0.22"/>
<polyline points="95.58,424.91 122.28,414.73 148.94,404.48 175.58,394.17 202.20,383.78 228.79,373.33 255.35,362.82 281.88,352.23 308.39,341.57 334.87,330.85 361.32,320.06 387.74,309.20 414.14,298.27 440.51,287.27 466.84,276.20 493.15,265.07 519.43,253.86 545.69,242.59 571.91,231.25 598.10,219.85 624.27,208.37 650.40,196.83 676.51,185.23 702.59,173.56 728.64,161.82 754.66,150.02 780.65,138.16 806.61,126.24 832.54,114.25 858.45,102.20 884.33,90.09" fill="none" stroke="#94a3b8" stroke-width="1.2" stroke-linecap="round" stroke-linejoin="round" opacity="0.22"/>
<polyline points="95.58,424.91 122.26,414.68 148.91,404.38 175.53,394.02 202.13,383.60 228.70,373.10 255.24,362.54 281.77,351.92 308.26,341.23 334.73,330.48 361.17,319.66 387.59,308.78 413.98,297.84 440.34,286.83 466.68,275.76 492.99,264.62 519.27,253.42 545.53,242.16 571.75,230.83 597.96,219.45 624.13,208.00 650.28,196.48 676.40,184.91 702.49,173.27 728.56,161.57 754.59,149.81 780.60,137.99 806.59,126.11 832.54,114.16 858.47,102.16 884.36,90.09" fill="none" stroke="#94a3b8" stroke-width="1.2" stroke-linecap="round" stroke-linejoin="round" opacity="0.22"/>
<polyline points="95.58,424.91 122.24,414.63 148.87,404.29 175.48,393.89 202.06,383.41 228.62,372.88 255.15,362.29 281.66,351.63 308.14,340.91 334.59,330.13 361.03,319.29 387.44,308.38 413.82,297.42 440.18,286.40 466.51,275.32 492.82,264.18 519.11,252.99 545.37,241.73 571.60,230.42 597.81,219.05 624.00,207.62 650.16,196.13 676.29,184.58 702.40,172.98 728.48,161.31 754.54,149.59 780.57,137.81 806.57,125.97 832.54,114.07 858.49,102.11 884.41,90.09" fill="none" stroke="#94a3b8" stroke-width="1.2" stroke-linecap="round" stroke-linejoin="round" opacity="0.22"/>
<polyline points="95.58,424.91 122.25,414.66 148.89,404.35 175.51,393.97 202.10,383.52 228.67,373.01 255.21,362.44 281.73,351.81 308.22,341.11 334.69,330.35 361.13,319.52 387.54,308.64 413.93,297.69 440.29,286.67 466.63,275.60 492.94,264.46 519.23,253.27 545.49,242.01 571.72,230.69 597.92,219.30 624.10,207.86 650.26,196.36 676.38,184.79 702.48,173.16 728.55,161.48 754.60,149.73 780.61,137.92 806.60,126.05 832.57,114.12 858.50,102.14 884.41,90.09" fill="none" stroke="#94a3b8" stroke-width="1.2" stroke-linecap="round" stroke-linejoin="round" opacity="0.22"/>
<polyline points="95.58,424.91 122.27,414.71 148.93,404.44 175.56,394.11 202.17,383.71 228.76,373.25 255.31,362.71 281.84,352.11 308.34,341.45 334.82,330.71 361.27,319.91 387.69,309.04 414.08,298.11 440.45,287.10 466.79,276.03 493.10,264.90 519.38,253.70 545.63,242.43 571.86,231.09 598.06,219.69 624.23,208.23 650.36,196.70 676.48,185.10 702.56,173.45 728.62,161.73 754.64,149.94 780.64,138.09 806.61,126.18 832.55,114.21 858.47,102.18 884.35,90.09" fill="none" stroke="#94a3b8" stroke-width="1.2" stroke-linecap="round" stroke-linejoin="round" opacity="0.22"/>
<polyline points="95.58,424.91 122.26,414.70 148.92,404.43 175.55,394.08 202.15,383.67 228.73,373.20 255.28,362.65 281.81,352.04 308.30,341.37 334.78,330.62 361.22,319.82 387.64,308.94 414.03,298.00 440.39,287.00 466.73,275.93 493.04,264.79 519.32,253.59 545.58,242.33 571.80,231.00 598.00,219.60 624.17,208.15 650.31,196.62 676.43,185.04 702.51,173.39 728.57,161.68 754.60,149.90 780.60,138.06 806.58,126.16 832.52,114.20 858.44,102.17 884.32,90.09" fill="none" stroke="#94a3b8" stroke-width="1.2" stroke-linecap="round" stroke-linejoin="round" opacity="0.22"/>
<polyline points="95.58,424.91 122.25,414.67 148.90,404.36 175.51,393.99 202.11,383.55 228.67,373.04 255.22,362.47 281.73,351.84 308.22,341.14 334.68,330.38 361.12,319.56 387.54,308.67 413.92,297.72 440.28,286.71 466.62,275.63 492.93,264.49 519.21,253.29 545.47,242.03 571.70,230.71 597.90,219.33 624.08,207.88 650.23,196.38 676.35,184.81 702.45,173.18 728.52,161.49 754.56,149.74 780.57,137.93 806.56,126.06 832.52,114.13 858.45,102.14 884.36,90.09" fill="none" stroke="#94a3b8" stroke-width="1.2" stroke-linecap="round" stroke-linejoin="round" opacity="0.22"/>
<polyline points="95.58,424.91 122.25,414.66 148.90,404.35 175.51,393.97 202.11,383.53 228.67,373.02 255.22,362.45 281.74,351.82 308.23,341.12 334.69,330.36 361.13,319.54 387.55,308.65 413.94,297.70 440.30,286.69 466.64,275.62 492.95,264.48 519.24,253.29 545.50,242.03 571.73,230.71 597.93,219.32 624.11,207.88 650.26,196.37 676.39,184.80 702.49,173.17 728.56,161.49 754.60,149.74 780.62,137.93 806.61,126.06 832.57,114.13 858.50,102.14 884.41,90.09" fill="none" stroke="#94a3b8" stroke-width="1.2" stroke-linecap="round" stroke-linejoin="round" opacity="0.22"/>
<polyline points="95.58,424.91 122.26,414.67 148.90,404.37 175.53,394.01 202.12,383.57 228.70,373.08 255.24,362.52 281.76,351.89 308.26,341.20 334.73,330.45 361.17,319.63 387.59,308.74 413.98,297.80 440.34,286.79 466.68,275.72 492.99,264.58 519.27,253.38 545.53,242.12 571.76,230.79 597.97,219.40 624.14,207.96 650.29,196.44 676.42,184.87 702.51,173.23 728.58,161.54 754.62,149.78 780.63,137.96 806.62,126.08 832.58,114.15 858.51,102.15 884.41,90.09" fill="none" stroke="#94a3b8" stroke-width="1.2" stroke-linecap="round" stroke-linejoin="round" opacity="0.22"/>
<polyline points="95.58,424.91 122.26,414.68 148.90,404.38 175.52,394.01 202.12,383.58 228.69,373.08 255.23,362.52 281.75,351.89 308.25,341.20 334.71,330.45 361.15,319.63 387.57,308.74 413.96,297.80 440.32,286.79 466.66,275.71 492.96,264.58 519.25,253.38 545.50,242.12 571.73,230.79 597.94,219.41 624.11,207.96 650.26,196.45 676.38,184.88 702.48,173.24 728.54,161.55 754.58,149.79 780.59,137.97 806.58,126.09 832.53,114.15 858.46,102.15 884.36,90.09" fill="none" stroke="#94a3b8" stroke-width="1.2" stroke-linecap="round" stroke-linejoin="round" opacity="0.22"/>
<polyline points="95.58,424.91 122.26,414.69 148.91,404.40 175.54,394.05 202.13,383.63 228.71,373.15 255.26,362.59 281.78,351.98 308.27,341.29 334.74,330.54 361.18,319.73 387.60,308.85 413.99,297.90 440.35,286.90 466.68,275.82 492.99,264.69 519.27,253.49 545.53,242.22 571.76,230.90 597.96,219.50 624.13,208.05 650.27,196.53 676.39,184.95 702.48,173.31 728.54,161.61 754.58,149.84 780.58,138.01 806.56,126.13 832.51,114.17 858.43,102.16 884.32,90.09" fill="none" stroke="#94a3b8" stroke-width="1.2" stroke-linecap="round" stroke-linejoin="round" opacity="0.22"/>
<polyline points="95.58,424.91 122.26,414.70 148.92,404.43 175.55,394.09 202.16,383.68 228.74,373.20 255.29,362.66 281.82,352.06 308.32,341.38 334.79,330.64 361.24,319.84 387.66,308.97 414.05,298.03 440.42,287.03 466.76,275.96 493.07,264.82 519.35,253.62 545.60,242.35 571.83,231.02 598.03,219.63 624.20,208.17 650.34,196.64 676.45,185.05 702.54,173.40 728.60,161.68 754.63,149.91 780.63,138.07 806.60,126.16 832.55,114.20 858.47,102.17 884.35,90.09" fill="none" stroke="#94a3b8" stroke-width="1.2" stroke-linecap="round" stroke-linejoin="round" opacity="0.22"/>
<polyline points="95.58,424.91 122.26,414.67 148.90,404.37 175.52,394.01 202.12,383.57 228.69,373.07 255.23,362.51 281.75,351.88 308.24,341.19 334.71,330.43 361.15,319.61 387.57,308.73 413.96,297.78 440.32,286.77 466.65,275.70 492.96,264.56 519.25,253.36 545.50,242.10 571.73,230.78 597.94,219.39 624.11,207.94 650.26,196.43 676.39,184.86 702.48,173.23 728.55,161.54 754.59,149.78 780.60,137.96 806.59,126.09 832.54,114.15 858.47,102.15 884.37,90.09" fill="none" stroke="#111827" stroke-width="2.2" stroke-linecap="round" stroke-linejoin="round" opacity="0.85" stroke-dasharray="7 5"/>
<polyline points="95.58,424.91 122.28,414.73 148.94,404.48 175.58,394.17 202.20,383.78 228.79,373.33 255.35,362.82 281.88,352.23 308.39,341.57 334.87,330.85 361.32,320.06 387.74,309.20 414.14,298.27 440.51,287.27 466.84,276.20 493.15,265.07 519.43,253.86 545.69,242.59 571.91,231.25 598.10,219.85 624.27,208.37 650.40,196.83 676.51,185.23 702.59,173.56 728.64,161.82 754.66,150.02 780.65,138.16 806.61,126.24 832.54,114.25 858.45,102.20 884.33,90.09" fill="none" stroke="#dc2626" stroke-width="3.2" stroke-linecap="round" stroke-linejoin="round" opacity="1.0"/>
<text x="45" y="520" font-family="Arial, sans-serif" font-size="13" fill="#334155" font-weight="400" text-anchor="start">max-sag frame #00009; sag range 0.612 m</text>
</svg>
